<?xml version="1.0" encoding="UTF-8"?>
<!DOCTYPE svg PUBLIC "-//W3C//DTD SVG 1.1//EN" "http://www.w3.org/Graphics/SVG/1.1/DTD/svg11.dtd">
<!-- Creator: CorelDRAW -->
<svg xmlns="http://www.w3.org/2000/svg" xml:space="preserve" width="155px" height="151px" style="shape-rendering:geometricPrecision; text-rendering:geometricPrecision; image-rendering:optimizeQuality; fill-rule:evenodd; clip-rule:evenodd"
viewBox="0 0 106.046 102.965"
 xmlns:xlink="http://www.w3.org/1999/xlink">
 <defs>
  <style type="text/css">
   <![CDATA[
    .fil1 {fill:#15A430}
    .fil2 {fill:#CCE5CF}
    .fil0 {fill:white}
    .fil3 {fill:white;fill-rule:nonzero}
   ]]>
  </style>
 </defs>
 <g id="Layer_x0020_1">
  <metadata id="CorelCorpID_0Corel-Layer"/>
  <g id="_577377992">
   <ellipse id="_602767512" class="fil0" cx="53.0232" cy="51.4824" rx="53.0232" ry="51.4824"/>
   <ellipse id="_602767800" class="fil1" cx="53.0232" cy="51.4824" rx="49.1536" ry="47.7252"/>
   <g>
    <g>
     <rect id="_602768424" class="fil0" x="35.3093" y="46.7047" width="6.09535" height="4.72727" rx="0.72762" ry="0.72762"/>
     <path id="_577132424" class="fil0" d="M34.8097 28.7116l-1.55757 -0.277189c-0.735678,-0.130536 -1.4214,0.368242 -1.52373,1.10956l0 0c-0.102334,0.740513 0.415783,1.45363 1.15146,1.58417l1.55757 0.277189c0.0709087,0.0120867 0.141817,0.0193387 0.211115,0.0201445l0 0c0.0547931,0.00161156 0.10878,-0.000805781 0.161962,-0.00644625 0.784025,-0.0201445 1.23768,0.194193 1.46894,0.564852l0.584997 0.0628509 -0.19097 -0.513282c-0.472993,-0.265908 -0.70667,-0.734066 -0.699418,-1.40689l0 -0.00644625 0 -0.00805781 0 0c0.00161156,-0.671215 -0.489915,-1.28039 -1.16435,-1.40045z"/>
     <path id="_578203792" class="fil2" d="M46.0125 19.4032c-3.39395,0.480245 -5.68156,2.25055 -7.27378,4.83146l-1.84604 9.10532 31.8533 0 -1.68811 -9.34222c-1.19094,-2.52693 -3.65583,-4.00554 -7.39787,-4.43179l-13.6475 -0.162768z"/>
     <rect id="_577132376" class="fil0" x="64.3161" y="46.7047" width="6.09535" height="4.72727" rx="0.72762" ry="0.72762"/>
     <path id="_577131824" class="fil0" d="M67.1054 31.34c-9.47034,0 -18.9399,0 -28.4094,0 -0.084607,0.00966937 -0.168408,0.0201445 -0.251404,0.0306197l1.0733 -5.58648c0.625286,-3.63649 2.99509,-5.38664 7.37289,-5.57117l5.98051 -0.149875 6.16986 0.178078c4.377,0.184524 6.7468,1.90648 7.37209,5.54297l1.07652 5.6034c-0.124896,-0.0169214 -0.253015,-0.0322312 -0.384357,-0.0475411zm-30.4722 0.386775c-1.63332,0.494749 -2.51081,1.44879 -2.94593,3.55349 -0.996751,6.25044 -1.55032,11.8176 1.06927,12.4928 12.0964,0 24.192,0 36.2875,0 2.61959,-0.675244 2.06602,-6.24238 1.07008,-12.4928 -0.423035,-2.04427 -1.26346,-3.00315 -2.80895,-3.50998l-0.978218 -5.98615c-0.947598,-4.27467 -3.64696,-6.89748 -8.83539,-7.00626 -4.73316,-0.159545 -8.31566,-0.173243 -13.0512,-0.0282023 -5.18923,0.10878 -7.88859,2.7598 -8.83539,7.03447l-0.971772 5.94263z"/>
     <path id="_577131752" class="fil0" d="M38.2883 36.0821c1.44235,0 2.61234,1.14663 2.61234,2.56077 0,1.41415 -1.16999,2.56077 -2.61234,2.56077 -1.44315,0 -2.61315,-1.14663 -2.61315,-2.56077 0,-1.41415 1.16999,-2.56077 2.61315,-2.56077zm0 0.82512c0.977412,0 1.7703,0.777578 1.7703,1.73565 0,0.958879 -0.792888,1.73565 -1.7703,1.73565 -0.978218,0 -1.77111,-0.776773 -1.77111,-1.73565 0,-0.958073 0.792888,-1.73565 1.77111,-1.73565z"/>
     <path id="_577132352" class="fil0" d="M71.2375 28.7116l1.55757 -0.277189c0.735678,-0.130536 1.4214,0.368242 1.52373,1.10956l0 0c0.102334,0.740513 -0.415783,1.45363 -1.15146,1.58417l-1.55838 0.277189c-0.0709087,0.0120867 -0.141012,0.0193387 -0.210309,0.0201445l-0.000805781 0c-0.0539873,0.00161156 -0.10878,-0.000805781 -0.161962,-0.00644625 -0.784025,-0.0201445 -1.23687,0.194193 -1.46813,0.564852l-0.584997 0.0628509 0.19097 -0.513282c0.472993,-0.265908 0.70667,-0.734066 0.699418,-1.40689l0 -0.00644625 0 -0.00805781 0 0c-0.00161156,-0.671215 0.489915,-1.28039 1.16435,-1.40045z"/>
     <path id="_577131680" class="fil0" d="M52.9189 8.95706c-2.90565,0 -5.47206,0.828343 -7.01674,2.09422 -1.47055,1.22318 0.0862185,2.18931 1.39964,1.07733 1.23446,-0.987082 3.29645,-1.63412 5.6316,-1.63412 2.38672,0 4.4882,0.675244 5.71218,1.7002 1.30939,1.12406 2.61395,0.0322312 1.30859,-1.1289 -1.54307,-1.27394 -4.11835,-2.10873 -7.03527,-2.10873z"/>
     <path id="_577131728" class="fil3" d="M52.9189 9.20766c-1.40125,0 -2.72193,0.195805 -3.87983,0.541485 -1.19417,0.356155 -2.2167,0.871855 -2.97817,1.49553l0 -0.000805781c-0.385163,0.320701 -0.525369,0.597084 -0.502001,0.795306 0.00805781,0.0668798 0.0378717,0.126508 0.0838012,0.172437 0.0539873,0.0547931 0.132148,0.0983053 0.22723,0.124896 0.32473,0.0910532 0.808198,-0.00805781 1.27072,-0.398862l0.00564047 -0.00322312c0.654294,-0.523758 1.52695,-0.954044 2.54224,-1.24896 0.972577,-0.281218 2.0765,-0.441568 3.24488,-0.441568 1.19578,0 2.32307,0.166797 3.31015,0.460907 1.03221,0.307002 1.91373,0.755017 2.56238,1.29811l0.00161156 0.00241734c0.431899,0.370659 0.846876,0.464936 1.1297,0.384357 0.0862185,-0.0241734 0.158739,-0.066074 0.210309,-0.120061 0.0475411,-0.0507642 0.0805781,-0.114421 0.091859,-0.186941 0.0338428,-0.212726 -0.0886359,-0.504419 -0.445597,-0.824314 -0.759851,-0.627703 -1.78319,-1.14663 -2.98058,-1.5052 -1.16194,-0.348097 -2.48664,-0.545514 -3.89434,-0.545514zm-4.02246 0.0612393c1.20464,-0.359378 2.57286,-0.562435 4.02246,-0.562435 1.45605,0 2.8299,0.204668 4.03696,0.56727 1.26266,0.377911 2.34643,0.929065 3.15786,1.59867l0.00644625 0.00644625c0.505225,0.449626 0.672021,0.91295 0.612393,1.282 -0.0282023,0.176466 -0.106363,0.331176 -0.223201,0.453655 -0.112809,0.11845 -0.261879,0.207891 -0.435122,0.257044 -0.424646,0.120867 -1.01528,0.00725203 -1.58981,-0.48508l0 0.000805781c-0.597084,-0.50039 -1.41737,-0.915367 -2.3835,-1.20303 -0.941152,-0.280412 -2.02009,-0.439151 -3.16752,-0.439151 -1.12406,0 -2.18125,0.152293 -3.10548,0.420618 -0.950821,0.275577 -1.76305,0.672827 -2.36497,1.15388l0.000805781 0c-0.602724,0.509253 -1.26508,0.628509 -1.72921,0.498778 -0.178883,-0.0499584 -0.332787,-0.138594 -0.448014,-0.256238 -0.12409,-0.125702 -0.203057,-0.282829 -0.224813,-0.46413 -0.0419006,-0.354544 0.145846,-0.7945 0.680885,-1.23929l0.000805781 -0.00161156c0.811421,-0.664769 1.89358,-1.2127 3.15302,-1.58819zm10.8974 1.98947l0 0"/>
     <path id="_578203744" class="fil0" d="M52.9632 11.6016c-1.63735,0 -3.75574,0.302168 -5.05708,1.52131 -1.18369,1.10795 -0.267519,2.00398 1.15307,1.07733 1.35613,-0.832372 2.26666,-1.1426 4.09901,-1.1426 1.83235,0 3.15141,0.858157 3.57283,1.13454 1.23365,0.950821 2.39317,0.0322312 1.29006,-1.02415 -1.32793,-1.08861 -3.42054,-1.56644 -5.05789,-1.56644z"/>
     <path id="_578203840" class="fil3" d="M52.9624 11.8522c-0.89764,0 -1.94274,0.0926648 -2.90726,0.382746 -0.742124,0.223201 -1.43751,0.564047 -1.97739,1.07088l-0.000805781 0c-0.327953,0.306197 -0.467353,0.576133 -0.464936,0.771132 0.000805781,0.0612393 0.0193387,0.113615 0.0507642,0.151487l0.000805781 -0.000805781c0.0354544,0.0419006 0.091859,0.0733261 0.166797,0.0910532l0 0.000805781c0.246569,0.058822 0.630926,-0.0273965 1.09264,-0.328759l0.00564047 -0.0040289c0.695389,-0.426258 1.27958,-0.720368 1.93146,-0.908921 0.652682,-0.189358 1.36016,-0.269937 2.29809,-0.269937 0.954044,0 1.77433,0.223201 2.40928,0.481857 0.63415,0.25785 1.08378,0.550348 1.30053,0.692972l0.0153098 0.0112809c0.406114,0.312643 0.788054,0.392415 1.04913,0.322312 0.0829954,-0.0225619 0.151487,-0.0612393 0.199028,-0.110392 0.0427064,-0.0443179 0.0701029,-0.100723 0.0789665,-0.164379 0.0241734,-0.176466 -0.0765492,-0.416589 -0.356155,-0.687331 -0.58822,-0.480245 -1.3376,-0.837206 -2.13048,-1.08216 -0.924231,-0.286052 -1.90567,-0.419812 -2.76141,-0.419812zm-3.04988 -0.0966937c1.01851,-0.307002 2.11276,-0.404502 3.04988,-0.404502 0.898446,0 1.93226,0.141012 2.90887,0.443179 0.853322,0.264296 1.66474,0.653488 2.30856,1.18047l0.0145041 0.0128925c0.413366,0.396444 0.555989,0.796111 0.511671,1.12004 -0.0233676,0.173243 -0.099111,0.325535 -0.214338,0.444791 -0.111198,0.116032 -0.25785,0.200639 -0.42787,0.247375 -0.390804,0.105557 -0.931483,0.0104752 -1.46974,-0.398056 -0.203863,-0.13376 -0.626092,-0.408531 -1.21431,-0.647848 -0.586608,-0.238511 -1.34324,-0.444791 -2.22154,-0.444791 -0.894417,0 -1.55919,0.0741318 -2.15869,0.24818 -0.599501,0.174049 -1.14904,0.451237 -1.81059,0.856545l0 0c-0.583385,0.378717 -1.10795,0.47944 -1.47377,0.391609l0 0.000805781c-0.178883,-0.0427064 -0.326341,-0.130536 -0.431899,-0.253015l0 -0.000805781c-0.107975,-0.126508 -0.167602,-0.286858 -0.17002,-0.46977 -0.00483468,-0.323924 0.182106,-0.729232 0.622063,-1.14099l-0.000805781 -0.000805781c0.602724,-0.564852 1.36741,-0.941958 2.17803,-1.1853z"/>
     <path id="_576845352" class="fil0" d="M53.0196 14.1535c-1.00481,0.0104752 -1.77433,0.099111 -2.983,0.866214 -1.50842,0.968549 0.134565,2.21267 1.25138,1.10634 0.452849,-0.414977 1.01851,-0.540679 1.72921,-0.517311 0.711504,0.0233676 1.21834,0.267519 1.62607,0.578551 1.10714,0.98547 2.44232,-0.0862185 1.31826,-1.03221 -0.629315,-0.560823 -1.9371,-1.01125 -2.94191,-1.00159z"/>
     <path id="_576844448" class="fil3" d="M53.0212 14.4033c-0.481857,0.00483468 -0.907309,0.0290081 -1.35532,0.142623 -0.443985,0.112809 -0.915367,0.317478 -1.49472,0.684914l-0.000805781 0c-0.362601,0.233676 -0.50039,0.46413 -0.489915,0.648654 0.0040289,0.0821896 0.0410948,0.16035 0.0999168,0.225619 0.0676856,0.0733261 0.163574,0.132148 0.277189,0.167602 0.298139,0.091859 0.703447,0.0233676 1.05396,-0.323924l0.00805781 -0.00725203c0.257044,-0.235288 0.545514,-0.388386 0.868632,-0.47944 0.312643,-0.0870243 0.656711,-0.116032 1.03704,-0.10314 0.385969,0.0128925 0.717951,0.0862185 1.00884,0.198222 0.290887,0.112004 0.540679,0.26349 0.760657,0.431899l0.0145041 0.0112809c0.361796,0.321507 0.739707,0.382746 1.00642,0.290081 0.0854128,-0.0290081 0.158739,-0.0749376 0.213532,-0.132148 0.0499584,-0.05157 0.0854128,-0.113615 0.099111,-0.181301 0.0370659,-0.173243 -0.0507642,-0.398056 -0.327953,-0.630926l-0.00564047 -0.0040289c-0.290081,-0.259461 -0.746153,-0.496361 -1.24896,-0.667187 -0.505225,-0.171631 -1.05316,-0.275577 -1.52454,-0.271548zm-1.47861 -0.343263c0.490721,-0.12409 0.952433,-0.150681 1.47458,-0.155516 0.529398,-0.00564047 1.13535,0.10878 1.68892,0.296527 0.563241,0.191776 1.08136,0.463324 1.4214,0.767103l0 0c0.435927,0.369853 0.563241,0.77355 0.490721,1.11278 -0.0338428,0.161156 -0.114421,0.305391 -0.228842,0.423841 -0.107975,0.112809 -0.248986,0.201445 -0.410948,0.25785 -0.4182,0.143429 -0.984664,0.0692972 -1.49795,-0.384357 -0.183718,-0.1394 -0.389998,-0.26349 -0.626092,-0.355349 -0.24254,-0.0926648 -0.519729,-0.153904 -0.844458,-0.164379 -0.33037,-0.0112809 -0.625286,0.0120867 -0.886359,0.0854128 -0.247375,0.0692972 -0.466547,0.184524 -0.659934,0.359378 -0.50039,0.495555 -1.1015,0.587414 -1.55355,0.446403 -0.199028,-0.0612393 -0.372271,-0.169214 -0.499584,-0.307808 -0.134565,-0.148264 -0.218367,-0.331982 -0.229648,-0.535038 -0.0193387,-0.352126 0.181301,-0.751794 0.721174,-1.09828l0.000805781 -0.000805781c0.628509,-0.398056 1.14663,-0.622063 1.63976,-0.747765z"/>
     <path id="_576844832" class="fil0" d="M67.2948 36.0821c1.44315,0 2.61234,1.14663 2.61234,2.56077 0,1.41415 -1.16919,2.56077 -2.61234,2.56077 -1.44315,0 -2.61234,-1.14663 -2.61234,-2.56077 0,-1.41415 1.16919,-2.56077 2.61234,-2.56077zm0 0.82512c0.978218,0 1.7703,0.777578 1.7703,1.73565 0,0.958879 -0.792083,1.73565 -1.7703,1.73565 -0.978218,0 -1.7703,-0.776773 -1.7703,-1.73565 0,-0.958073 0.792083,-1.73565 1.7703,-1.73565z"/>
    </g>
    <g>
     <circle id="_577367792" class="fil1" cx="39.7282" cy="38.6452" r="1.65185"/>
     <circle id="_577365368" class="fil1" cx="66.319" cy="38.6452" r="1.65185"/>
    </g>
   </g>
   <g>
    <path id="_577375496" class="fil0" d="M30.0734 88.6899l4.20456 0c2.67116,0 4.94911,-2.18528 4.94911,-4.85644l0 -7.63477 -3.12079 0 0 7.46395c0,1.04913 -0.858157,1.90648 -1.90648,1.90648l-4.1264 0 0 3.12079z"/>
    <path id="_577375400" class="fil0" d="M46.6797 76.1987c3.44955,0 6.24641,2.79606 6.24641,6.24561 0,3.44955 -2.79687,6.24561 -6.24641,6.24561 -3.44955,0 -6.24561,-2.79606 -6.24561,-6.24561 0,-3.44955 2.79606,-6.24561 6.24561,-6.24561zm0 2.93788c1.82671,0 3.30773,1.48103 3.30773,3.30773 0,1.82671 -1.48103,3.30773 -3.30773,3.30773 -1.82671,0 -3.30773,-1.48103 -3.30773,-3.30773 0,-1.82671 1.48103,-3.30773 3.30773,-3.30773z"/>
    <path id="_577375040" class="fil0" d="M60.9807 76.1971l-2.64941 4.97892 -2.13532 -4.97892 -3.37058 0 3.63891 8.49293c-0.936317,0.936317 -1.3666,0.879913 -3.65905,0.879913l0 3.05874c3.90643,0 5.1014,-0.535844 6.79676,-3.34238l4.9201 -9.08921 -3.54141 0z"/>
    <path id="_577375112" class="fil0" d="M75.9739 88.6286l0 -7.02802c0,-2.97172 -2.43185,-5.40357 -5.40357,-5.40357l-0.971772 0c-2.97172,0 -5.40357,2.43185 -5.40357,5.40357l0 7.02802 3.03618 0 0 -6.92891c0,-1.43993 1.17805,-2.61798 2.61798,-2.61798l0.470576 0c1.43993,0 2.61798,1.17805 2.61798,2.61798l0 6.92891 3.03618 0z"/>
   </g>
   <path id="_577375064" class="fil3" d="M18.2904 53.7569l6.4817 0c1.46007,0 2.57205,0.0966937 3.34157,0.293304 1.03059,0.264296 1.91373,0.735678 2.64538,1.41415 0.736484,0.675244 1.2965,1.50359 1.68086,2.48261 0.380329,0.982247 0.57291,2.18931 0.57291,3.62843 0,1.26105 -0.179689,2.35046 -0.539873,3.26422 -0.437539,1.1152 -1.06363,2.01848 -1.8815,2.70742 -0.613199,0.525369 -1.44315,0.932288 -2.49067,1.22479 -0.780802,0.218367 -1.82751,0.325535 -3.14013,0.325535l-6.67025 0 0 -15.3405zm3.54544 2.59703l0 10.1569 2.64618 0c0.989499,0 1.70503,-0.0459295 2.1466,-0.145846 0.57291,-0.124896 1.05154,-0.336011 1.43187,-0.635761 0.380329,-0.29975 0.686525,-0.796111 0.92826,-1.48183 0.2369,-0.686525 0.359378,-1.62607 0.359378,-2.81137 0,-1.18611 -0.122479,-2.09261 -0.359378,-2.72837 -0.241734,-0.636567 -0.576939,-1.13212 -1.00642,-1.48586 -0.43351,-0.356961 -0.981441,-0.596278 -1.64379,-0.72198 -0.494749,-0.0999168 -1.4641,-0.145846 -2.91209,-0.145846l-1.59061 0zm17.3847 12.7434l-3.36575 0 0 -11.1109 3.12401 0 0 1.57852c0.535844,-0.746959 1.01851,-1.23929 1.44396,-1.47538 0.429481,-0.235288 0.912144,-0.356961 1.45605,-0.356961 0.768715,0 1.5052,0.18533 2.2167,0.556795l-1.04349 2.56077c-0.564047,-0.317478 -1.09183,-0.478634 -1.57852,-0.478634 -0.473799,0 -0.871049,0.111198 -1.1982,0.339234 -0.331176,0.225619 -0.584997,0.636567 -0.772744,1.22882 -0.187747,0.593055 -0.282023,1.83637 -0.282023,3.72593l0 3.43182zm6.32619 -12.6185l0 -2.72193 3.36575 0 0 2.72193 -3.36575 0zm0 12.6185l0 -11.1109 3.36575 0 0 11.1109 -3.36575 0zm10.3148 0l-5.12879 -11.1109 3.53335 0 2.3972 5.67109 0.694583 1.89278c0.184524,-0.481857 0.302974,-0.80014 0.348097,-0.953239 0.114421,-0.314255 0.232871,-0.628509 0.359378,-0.93954l2.42137 -5.67109 3.46405 0 -5.05869 11.1109 -3.03054 0zm17.5153 -3.53657l3.35769 0.489915c-0.43351,1.07491 -1.11198,1.89358 -2.04507,2.4536 -0.92826,0.564047 -2.09342,0.842847 -3.49225,0.842847 -2.21267,0 -3.84841,-0.628509 -4.91123,-1.89278 -0.838818,-1.01045 -1.26024,-2.28922 -1.26024,-3.82826 0,-1.84363 0.55196,-3.28678 1.65669,-4.32946 1.09989,-1.04268 2.4947,-1.56402 4.17959,-1.56402 1.89358,0 3.38589,0.546319 4.48175,1.63896 1.09183,1.09344 1.61559,2.76463 1.57047,5.0184l-8.43653 0c0.0241734,0.871049 0.29411,1.54952 0.813839,2.03218 0.518923,0.485886 1.16919,0.728426 1.94274,0.728426 0.526981,0 0.969354,-0.124896 1.32873,-0.374688 0.360184,-0.253821 0.63415,-0.657517 0.813839,-1.21512zm0.192582 -2.97091c-0.0249792,-0.853322 -0.273965,-1.50036 -0.752599,-1.94274 -0.478634,-0.443179 -1.06363,-0.664769 -1.75016,-0.664769 -0.736484,0 -1.34163,0.236094 -1.82026,0.704252 -0.478634,0.463324 -0.715533,1.09989 -0.707476,1.90325l5.03049 0zm9.3116 6.50749l-3.36575 0 0 -11.1109 3.12401 0 0 1.57852c0.535844,-0.746959 1.01851,-1.23929 1.44396,-1.47538 0.429481,-0.235288 0.912144,-0.356961 1.45605,-0.356961 0.768715,0 1.5052,0.18533 2.2167,0.556795l-1.04349 2.56077c-0.564047,-0.317478 -1.09183,-0.478634 -1.57852,-0.478634 -0.473799,0 -0.871049,0.111198 -1.1982,0.339234 -0.331176,0.225619 -0.584997,0.636567 -0.772744,1.22882 -0.187747,0.593055 -0.282023,1.83637 -0.282023,3.72593l0 3.43182z"/>
  </g>
 </g>
</svg>
