<?xml version="1.0" encoding="UTF-8"?>
<!DOCTYPE svg PUBLIC "-//W3C//DTD SVG 1.1//EN" "http://www.w3.org/Graphics/SVG/1.1/DTD/svg11.dtd">
<!-- Creator: CorelDRAW -->
<svg xmlns="http://www.w3.org/2000/svg" xml:space="preserve" width="216px" height="244px" style="shape-rendering:geometricPrecision; text-rendering:geometricPrecision; image-rendering:optimizeQuality; fill-rule:evenodd; clip-rule:evenodd"
viewBox="0 0 24.6728 27.8532"
 xmlns:xlink="http://www.w3.org/1999/xlink">
 <defs>
  <style type="text/css">
   <![CDATA[
    .fil0 {fill:#A1A1A1}
    .fil2 {fill:#B6B6B7}
    .fil1 {fill:white}
    .fil4 {fill:#A1A1A1;fill-rule:nonzero}
    .fil3 {fill:white;fill-rule:nonzero}
   ]]>
  </style>
 </defs>
 <g id="Layer_x0020_1">
  <metadata id="CorelCorpID_0Corel-Layer"/>
  <g id="_348301160">
   <rect id="_517065584" class="fil0" x="15.0035" y="12.7613" width="7.83726" height="14.9785"/>
   <rect id="_517069232" class="fil0" x="7.2383" y="0.00011949" width="6.97126" height="27.7399"/>
   <rect id="_517073312" class="fil0" x="-5.04236e-005" y="7.54616" width="6.52546" height="20.1937"/>
   <rect id="_517083032" class="fil1" x="0.874188" y="10.2286" width="1.17251" height="1.42637"/>
   <rect id="_517082336" class="fil1" x="2.6234" y="10.2286" width="1.17251" height="1.42637"/>
   <rect id="_517083512" class="fil1" x="4.37276" y="10.2286" width="1.17251" height="1.42637"/>
   <rect id="_517083200" class="fil1" x="0.874188" y="12.924" width="1.17251" height="1.42637"/>
   <rect id="_517083224" class="fil1" x="2.6234" y="12.924" width="1.17251" height="1.42637"/>
   <rect id="_517084136" class="fil1" x="4.37276" y="12.924" width="1.17251" height="1.42637"/>
   <rect id="_517084184" class="fil1" x="0.874188" y="15.4846" width="1.17251" height="1.42637"/>
   <rect id="_517084664" class="fil1" x="2.6234" y="15.4846" width="1.17251" height="1.42637"/>
   <rect id="_517084640" class="fil1" x="4.37276" y="15.4846" width="1.17251" height="1.42637"/>
   <rect id="_517085936" class="fil1" x="0.874188" y="18.1128" width="1.17251" height="1.42637"/>
   <rect id="_517086104" class="fil1" x="2.6234" y="18.1128" width="1.17251" height="1.42637"/>
   <rect id="_517086488" class="fil1" x="4.37276" y="18.1128" width="1.17251" height="1.42637"/>
   <rect id="_517086872" class="fil1" x="0.874188" y="20.6733" width="1.17251" height="1.42637"/>
   <rect id="_517086320" class="fil1" x="2.6234" y="20.6733" width="1.17251" height="1.42637"/>
   <rect id="_517086944" class="fil1" x="4.37276" y="20.6733" width="1.17251" height="1.42637"/>
   <rect id="_517055336" class="fil1" x="8.15181" y="10.2286" width="1.17251" height="1.42637"/>
   <rect id="_517054904" class="fil1" x="10.0359" y="10.2286" width="0.91292" height="1.42637"/>
   <rect id="_517054784" class="fil1" x="11.6504" y="10.2286" width="1.17251" height="1.42637"/>
   <rect id="_517055912" class="fil1" x="8.15181" y="12.924" width="1.17251" height="1.42637"/>
   <rect id="_517056056" class="fil1" x="10.0359" y="12.924" width="0.91292" height="1.42637"/>
   <rect id="_517055480" class="fil1" x="11.6504" y="12.924" width="1.17251" height="1.42637"/>
   <rect id="_517056632" class="fil1" x="8.15181" y="15.4846" width="1.17251" height="1.42637"/>
   <rect id="_517065392" class="fil1" x="10.0359" y="15.4846" width="0.91292" height="1.42637"/>
   <rect id="_517390960" class="fil1" x="11.6504" y="15.4846" width="1.17251" height="1.42637"/>
   <rect id="_517391368" class="fil1" x="8.15181" y="18.1128" width="1.17251" height="1.42637"/>
   <rect id="_517391440" class="fil1" x="10.0359" y="18.1128" width="0.91292" height="1.42637"/>
   <rect id="_517392448" class="fil1" x="11.6504" y="18.1128" width="1.17251" height="1.42637"/>
   <rect id="_517392496" class="fil1" x="8.15181" y="20.6733" width="1.17251" height="1.42637"/>
   <rect id="_517392784" class="fil1" x="10.0359" y="20.6733" width="0.91292" height="1.42637"/>
   <rect id="_517392880" class="fil1" x="11.6504" y="20.6733" width="1.17251" height="1.42637"/>
   <polygon id="_517392904" class="fil1" points="9.32436,0.953761 9.32436,1.21012 8.15183,1.21012 8.15183,0.953761 "/>
   <polygon id="_517394008" class="fil1" points="10.9489,0.953761 10.9489,1.21012 10.0359,1.21012 10.0359,0.953761 "/>
   <polygon id="_517394200" class="fil1" points="12.8228,0.953761 12.8228,1.21012 11.6504,1.21012 11.6504,0.953761 "/>
   <rect id="_517393552" class="fil1" x="8.15181" y="2.34441" width="1.17251" height="1.42637"/>
   <rect id="_517393648" class="fil1" x="10.0359" y="2.34441" width="0.91292" height="1.42637"/>
   <rect id="_517394704" class="fil1" x="11.6504" y="2.34441" width="1.17251" height="1.42637"/>
   <rect id="_517394800" class="fil1" x="8.15181" y="4.97242" width="1.17251" height="1.42637"/>
   <rect id="_517395640" class="fil1" x="10.0359" y="4.97242" width="0.91292" height="1.42637"/>
   <rect id="_517395616" class="fil1" x="11.6504" y="4.97242" width="1.17251" height="1.42637"/>
   <rect id="_517395664" class="fil1" x="8.15181" y="7.53307" width="1.17251" height="1.42637"/>
   <rect id="_517396096" class="fil1" x="10.0359" y="7.53307" width="0.91292" height="1.42637"/>
   <rect id="_517396144" class="fil1" x="11.6504" y="7.53307" width="1.17251" height="1.42637"/>
   <polygon id="_517396648" class="fil1" points="16.939,14.1295 16.939,14.3503 15.7664,14.3503 15.7664,14.1295 "/>
   <polygon id="_517397128" class="fil1" points="19.3785,14.1295 19.3785,14.3503 18.4655,14.3503 18.4655,14.1295 "/>
   <polygon id="_517397008" class="fil1" points="21.9201,14.1295 21.9201,14.3503 20.7477,14.3503 20.7477,14.1295 "/>
   <rect id="_517397464" class="fil1" x="15.7664" y="15.4846" width="1.17251" height="1.42637"/>
   <rect id="_517397872" class="fil1" x="18.4656" y="15.4846" width="0.91292" height="1.42637"/>
   <rect id="_517398448" class="fil1" x="20.7474" y="15.4846" width="1.17251" height="1.42637"/>
   <rect id="_517398592" class="fil1" x="15.7664" y="18.1128" width="1.17251" height="1.42637"/>
   <rect id="_517399456" class="fil1" x="18.4656" y="18.1128" width="0.91292" height="1.42637"/>
   <rect id="_517398904" class="fil1" x="20.7474" y="18.1128" width="1.17251" height="1.42637"/>
   <rect id="_517400176" class="fil1" x="15.7664" y="20.6733" width="1.17251" height="1.42637"/>
   <rect id="_517400152" class="fil1" x="18.4656" y="20.6733" width="0.91292" height="1.42637"/>
   <rect id="_517401016" class="fil1" x="20.7474" y="20.6733" width="1.17251" height="1.42637"/>
   <polygon id="_517401136" class="fil1" points="2.04668,8.65606 2.04668,8.89207 0.874147,8.89207 0.874147,8.65606 "/>
   <polygon id="_517400896" class="fil1" points="3.79592,8.65606 3.79592,8.89207 2.62338,8.89207 2.62338,8.65606 "/>
   <polygon id="_517401232" class="fil1" points="5.54515,8.65606 5.54515,8.89207 4.37262,8.89207 4.37262,8.65606 "/>
   <path id="_517401928" class="fil1" d="M22.923 27.8531l-6.65275 0c-0.240192,-0.378002 -0.378406,-0.82107 -0.378406,-1.29472 0,-1.387 1.18425,-2.51103 2.64507,-2.51103 0.463409,0 0.898934,0.113158 1.27774,0.311858 0.57549,-0.719766 1.38403,-1.01559 2.50268,-1.01559 0.20126,0 0.40454,0.023844 0.605665,0.0681643l0 4.44132z"/>
   <path id="_517401472" class="fil1" d="M9.53263 22.7561c-0.600007,0 -1.16378,0.137945 -1.65399,0.380023 -0.745092,-0.877245 -1.47698,-1.40154 -3.26731,-1.40154 -1.79046,0 -4.01523,1.58974 -4.01523,3.60314 0,0.97545 0.563096,1.86132 1.3292,2.51548l9.94862 0c0.593137,-0.541138 1.01829,-1.25498 1.01829,-2.03765 0,-1.68969 -1.4685,-3.05945 -3.35958,-3.05945z"/>
   <path id="_517401520" class="fil2" d="M9.30173 23.0445c-0.54949,0 -1.06584,0.122588 -1.51484,0.337588 -0.682317,-0.779175 -1.76217,-1.28246 -2.97794,-1.28246 -2.06352,0 -3.73637,1.44977 -3.73637,3.23807 0,1.01559 0.539522,1.92194 1.38363,2.51548l4.70563 0c0.0231705,-0.0163002 0.0463409,-0.0328697 0.0691073,-0.0498435 0.0222275,0.0169737 0.0447244,0.0335433 0.067356,0.0498435l4.00674 0c0.692016,-0.498435 1.13252,-1.25013 1.13252,-2.09087 0,-1.50096 -1.40397,-2.71782 -3.13583,-2.71782z"/>
   <path id="_517402552" class="fil2" d="M23.9858 27.8531l-7.04396 0c-0.38366,-0.360489 -0.618059,-0.84195 -0.618059,-1.3711 0,-1.1169 1.04483,-2.02243 2.33348,-2.02243 0.408851,0 0.793185,0.0912001 1.12741,0.251373 0.507595,-0.579801 1.31115,-0.954435 2.21588,-0.954435 1.02866,0 1.92652,0.484559 2.40757,1.20419 0.405349,0.987978 0.403867,2.16253 -0.422322,2.8924z"/>
   <path id="_517402504" class="fil3" d="M14.5494 6.66959c-4.69216,2.67107 -8.30379,6.99075 -10.5443,11.792l0.713435 0.699964 -0.0103728 0.0218234 1.89782 1.87196c2.17344,-4.12461 4.46099,-7.36363 7.94343,-9.96142l0 -4.42435z"/>
   <path id="_517402384" class="fil4" d="M16.803 6.0289c-5.42149,2.44516 -9.62827,7.0321 -12.2036,12.234l1.85943 1.90995c2.86452,-5.17981 5.88382,-8.92845 11.28,-11.7016 0.319402,0.952549 0.131748,1.49894 0.195198,2.6642 1.31115,-2.01731 2.66272,-3.9961 4.06076,-5.93097 -2.04277,-0.388105 -4.1009,-0.679892 -6.17264,-0.889908 0.681912,0.674503 0.558112,0.843836 0.980838,1.71435z"/>
  </g>
 </g>
</svg>
