<?xml version="1.0" encoding="UTF-8"?>
<!DOCTYPE svg PUBLIC "-//W3C//DTD SVG 1.1//EN" "http://www.w3.org/Graphics/SVG/1.1/DTD/svg11.dtd">
<!-- Creator: CorelDRAW -->
<svg xmlns="http://www.w3.org/2000/svg" xml:space="preserve" width="247px" height="150px" style="shape-rendering:geometricPrecision; text-rendering:geometricPrecision; image-rendering:optimizeQuality; fill-rule:evenodd; clip-rule:evenodd"
viewBox="0 0 3651.99 2212.05"
 xmlns:xlink="http://www.w3.org/1999/xlink">
 <defs>
  <style type="text/css">
   <![CDATA[
    .fil0 {fill:none}
    .fil1 {fill:#1AB861}
    .fil2 {fill:#B8DCC4}
    .fil3 {fill:white}
   ]]>
  </style>
 </defs>
 <g id="Layer_x0020_1">
  <metadata id="CorelCorpID_0Corel-Layer"/>
  <g id="_530821616">
   <rect id="_530822648" class="fil0" x="-0.00350177" y="0.00556219" width="3652" height="2212.05"/>
   <g>
    <path id="_530822600" class="fil1" d="M1064.6 1918.88l52.8314 8.75293 1455.9 -3.45235 96.9797 4.86468 4.42877 -0.819497c-3.64415,-17.6279 -5.57956,-35.901 -5.57956,-54.6099 0,-147.719 119.769,-267.47 267.505,-267.47 147.719,0 267.487,119.751 267.487,267.47 0,26.9737 -4.01031,52.9884 -11.4207,77.521l4.30672 1.30771c202.765,-20.5223 212.006,-284.679 114.747,-425.058 -124.598,-179.888 -488.787,-244.646 -733.119,-299.762 -6.25957,0.122053 -16.5294,-3.12106 -27.5491,-12.1007 -74.8707,-61.0438 -233.853,-220.201 -349.716,-290.625 -291.793,-177.378 -1296.06,-339.76 -1689.56,-55.2027 -125.732,125.557 -228.675,440.471 -229.424,664.229 -2.02259,88.9591 -35.3256,389.749 242.484,414.84 -6.73034,-23.8875 -10.3222,-49.0827 -10.3222,-75.1322 0,-152.915 123.936,-276.868 276.868,-276.868 152.897,0 276.851,123.953 276.851,276.868 0,15.4135 -1.29027,30.5306 -3.69646,45.2467z"/>
    <path id="_530822792" class="fil1" d="M791.443 1628.95c135.147,0 244.664,109.534 244.664,244.681 0,135.13 -109.516,244.681 -244.664,244.681 -135.147,0 -244.681,-109.551 -244.681,-244.681 0,-135.147 109.534,-244.681 244.681,-244.681zm0 114.067c72.1332,0 130.596,58.4807 130.596,130.596 0,72.1506 -58.4633,130.614 -130.596,130.614 -72.1506,0 -130.614,-58.4633 -130.614,-130.614 0,-72.1158 58.4633,-130.596 130.614,-130.596z"/>
    <path id="_530822888" class="fil1" d="M2937.04 1624.7c135.13,0 244.664,109.534 244.664,244.681 0,135.13 -109.534,244.681 -244.664,244.681 -135.147,0 -244.681,-109.551 -244.681,-244.681 0,-135.147 109.534,-244.681 244.681,-244.681zm0 114.067c72.1332,0 130.596,58.4807 130.596,130.614 0,72.1332 -58.4633,130.614 -130.596,130.614 -72.1506,0 -130.614,-58.4807 -130.614,-130.614 0,-72.1332 58.4633,-130.614 130.614,-130.614z"/>
    <circle id="_530822432" class="fil2" cx="2937.04" cy="1869.38" r="131.128"/>
    <circle id="_530821976" class="fil2" cx="791.431" cy="1873.63" r="131.128"/>
    <g>
     <path id="_530821880" class="fil3" d="M676.87 1281.45c204.438,39.58 498.865,56.6674 784.643,46.0837 -17.192,-135.67 -55.2027,-284.261 -127.789,-447.637 -132.48,-15.274 -295.995,-9.76422 -488.473,7.27086 -73.7896,111.469 -127.754,224.473 -168.381,394.283z"/>
     <path id="_530822144" class="fil3" d="M1553.77 1330.31l885.284 -6.99188c-73.2317,-233.749 -585.243,-416.828 -1006.88,-437.315 78.4276,162.853 96.8402,260.792 121.599,444.307z"/>
     <path id="_530821664" class="fil3" d="M409.836 1260.25l174.396 8.89242c61.689,-176.035 114.52,-289.875 170.281,-370.169 -200.794,20.191 -305.952,144.493 -344.677,361.276z"/>
     <rect id="_530821808" class="fil1" transform="matrix(0.465416 0.713408 -0.713408 0.465416 2361.4 1234.1)" width="350.605" height="156.855" rx="31.4199" ry="31.4199"/>
    </g>
   </g>
  </g>
 </g>
</svg>
