<?xml version="1.0" encoding="UTF-8"?>
<!DOCTYPE svg PUBLIC "-//W3C//DTD SVG 1.1//EN" "http://www.w3.org/Graphics/SVG/1.1/DTD/svg11.dtd">
<!-- Creator: CorelDRAW -->
<svg xmlns="http://www.w3.org/2000/svg" xml:space="preserve" width="247px" height="154px" style="shape-rendering:geometricPrecision; text-rendering:geometricPrecision; image-rendering:optimizeQuality; fill-rule:evenodd; clip-rule:evenodd"
viewBox="0 0 52.3554 32.5303"
 xmlns:xlink="http://www.w3.org/1999/xlink">
 <defs>
  <style type="text/css">
   <![CDATA[
    .fil0 {fill:none}
    .fil1 {fill:#1AB861}
    .fil2 {fill:#222021}
    .fil5 {fill:#B8DCC4}
    .fil3 {fill:#FEFEFE}
    .fil4 {fill:white}
   ]]>
  </style>
 </defs>
 <g id="Layer_x0020_1">
  <metadata id="CorelCorpID_0Corel-Layer"/>
  <g id="_530819384">
   <rect id="_530821688" class="fil0" x="-5.02017e-005" y="8.08572e-005" width="52.3555" height="32.5303"/>
   <path id="_530821280" class="fil1" d="M50.9916 20.605c1.06935,2.87586 1.4683,7.20677 0.432941,8.38661l-4.00996 -0.0177476c0.374449,-0.676908 0.58817,-1.4553 0.58817,-2.28369 0,-2.6079 -2.11421,-4.72211 -4.72211,-4.72211 -2.6079,0 -4.72186,2.11421 -4.72186,4.72211 0,0.81339 0.205472,1.57854 0.567673,2.2467l-0.105986 -0.000499932 -24.0397 0.00124983 -0.184725 0.00274963c0.486934,-0.748648 0.769896,-1.64228 0.769896,-2.6019 0,-2.63939 -2.13971,-4.7791 -4.77935,-4.7791 -2.63939,0 -4.7791,2.13971 -4.7791,4.7791 0,1.01086 0.313957,1.94824 0.849385,2.72038l-0.200223 0.00299959c-2.41792,-0.160478 -6.09942,-0.0792393 -6.16541,-0.788643 -0.236218,-3.90322 -0.328955,-10.0621 0.529178,-11.9819 0.0904877,-0.202223 0.217221,-0.334455 0.239967,-0.546676 0.585171,-5.44676 1.03986,-6.76408 7.00655,-6.73859l2.98185 0.0347453c6.67284,0.00224969 16.8772,0.237218 23.2288,1.54154 1.74226,0.314957 1.20359,0.410194 1.38481,0.544926 2.2427,1.66602 4.31741,3.79374 6.88157,5.03732 2.1862,1.06036 1.04236,-0.341954 4.42315,1.79276l2.91435 1.67702c1.00661,0.73765 0.429442,0.172727 0.910127,0.970618z"/>
   <path id="_530821424" class="fil2" d="M44.7509 22.9381c2.45217,0.992115 3.02559,3.3533 2.30194,5.29678 -0.678158,1.82125 -3.01534,3.3203 -5.56799,2.20695 -4.26842,-1.8615 -2.13446,-9.68869 3.26606,-7.50373z"/>
   <path id="_530820848" class="fil3" d="M41.3626 29.0101c0.525929,-0.43969 0.867882,-0.877381 1.44655,-1.37856 -0.185975,2.48266 -0.239967,1.65478 0.373949,1.98048 0.603668,-1.29807 0.354452,-0.531428 0.378699,-1.98948 0.88813,1.06111 0.986116,1.37381 1.61678,1.18509 0.110485,-0.832887 0.129982,-0.461187 -0.317207,-0.924125 -0.697155,-0.721402 -0.22397,0.0359951 -0.66641,-0.875631 1.97573,0.278212 1.36881,0.167727 1.88699,-0.178476 -1.33482,-0.608917 -0.698155,-0.44319 -1.84325,-0.36795l1.4628 -1.60728c-1.87275,0.0434941 -0.745899,-0.130982 -2.11371,0.847635 0.350702,-2.53416 0.156229,-1.5113 -0.133982,-1.92024 -0.914376,1.36257 -0.450439,0.494933 -0.51568,1.88974l-1.57629 -1.37456 -0.327956 0.375699c0.305709,-0.37095 -0.278462,0.0419943 0.539677,-0.526679 2.09872,-1.4593 4.50664,0.259465 4.72886,2.20045 0.331455,2.89486 -3.09183,4.32891 -4.93983,2.66389z"/>
   <path id="_530821088" class="fil2" d="M41.3626 29.0101c-0.0499932,-0.0749898 -0.226969,-0.3667 -0.255715,-0.418443l-0.244217 -0.557174 1.35607 -1.02711 0.51543 0.321706c1.29957,0.497932 -1.23533,-0.109485 0.481935,0.14873 0.991616,0.14923 0.506181,-0.141231 0.636414,-0.201473l0.104986 -0.896128c-0.000249966,-0.115734 -0.0607418,-0.142481 -0.0892379,-0.214471 -1.1411,-0.233468 -0.746149,-0.275713 -1.56979,0.229219l-1.26458 -1.72252 0.327956 -0.375699 1.57629 1.37456c0.0652412,-1.39481 -0.398696,-0.527179 0.51568,-1.88974 0.290211,0.408945 0.484684,-0.613917 0.133982,1.92024 1.36781,-0.978617 0.240967,-0.804141 2.11371,-0.847635l-1.4628 1.60728c1.14509,-0.0752398 0.508431,-0.240967 1.84325,0.36795 -0.51818,0.346203 0.088738,0.456688 -1.88699,0.178476 0.44244,0.911626 -0.0307458,0.154229 0.66641,0.875631 0.447189,0.462937 0.427692,0.0912376 0.317207,0.924125 -0.630664,0.188724 -0.728651,-0.123983 -1.61678,-1.18509 -0.0242467,1.45805 0.224969,0.691406 -0.378699,1.98948 -0.613917,-0.325706 -0.559924,0.502182 -0.373949,-1.98048 -0.578672,0.501182 -0.920625,0.938873 -1.44655,1.37856z"/>
   <path id="_530821256" class="fil3" d="M8.37361 24.4102l1.39031 1.33682c-0.781644,0.248216 0.113985,-0.479935 -1.95823,0.541177 0.670409,0.562174 0.403695,0.475685 2.08097,0.457688 -0.242717,0.125483 -0.80939,0.410194 -0.916626,0.51343 -0.434941,0.418443 -0.336954,0.602668 -0.319957,1.08635l0.410944 0.0512431c0.59042,-0.189224 0.393197,-0.158728 1.40881,-1.0831 -0.256465,1.11235 -0.285211,0.66441 0.237718,1.94999 0.434191,-0.536427 0.459688,0.0199973 0.463687,-1.84075 0.202223,0.214971 0.284961,0.312458 0.502432,0.553675l1.07635 0.898128 -0.825388 -2.16821c1.30357,0.177726 0.539427,0.322956 1.89824,-0.14798 -0.262464,-0.623665 0.346203,-0.680408 -1.87575,-0.548676 0.692156,-1.01786 0.639663,0.372449 0.880631,-1.8445 2.02972,1.97923 0.684907,4.84134 -1.66277,5.1453 -1.25108,0.161978 -2.36043,-0.683907 -2.87136,-1.36207 -0.880881,-1.16959 -0.277212,-2.52216 0.0799892,-3.53852z"/>
   <path id="_530820992" class="fil4" d="M41.3626 29.0101c-0.100236,-0.044244 -1.05211,0.00774895 -1.25608,-2.02797 -0.0307458,-0.305459 0.066241,-0.96162 0.137481,-1.19209 0.210721,-0.681408 0.164978,-0.58767 0.789893,-1.1176l1.26458 1.72252c0.823638,-0.504932 0.428692,-0.462687 1.56979,-0.229219 0.0284961,0.0719902 0.0889879,0.0987366 0.0892379,0.214471l-0.104986 0.896128c-0.130232,0.0602418 0.355202,0.350702 -0.636414,0.201473 -1.71727,-0.258215 0.817639,0.349203 -0.481935,-0.14873l-0.51543 -0.321706 -1.35607 1.02711 0.244217 0.557174c0.0287461,0.051743 0.205722,0.343453 0.255715,0.418443z"/>
   <circle id="_530820440" class="fil1" cx="10.7866" cy="26.3385" r="4.17815"/>
   <circle id="_530820488" class="fil4" cx="10.7866" cy="26.3385" r="3.01126"/>
   <circle id="_530820680" class="fil1" cx="43.2807" cy="26.6901" r="4.17815"/>
   <circle id="_530820632" class="fil4" cx="43.2807" cy="26.6901" r="3.01126"/>
   <line id="_530820248" class="fil0" x1="49.6038" y1="21.6243" x2="51.5665" y2= "29.1338" />
   <path id="_530820560" class="fil4" d="M4.13419 12.3496l1.58329 -0.852634 1.95423 -0.171727c1.55204,-0.111985 3.22481,-0.180975 4.98132,-0.21847l-0.864133 6.41638c-1.48205,-0.122233 -3.07433,-0.264464 -4.8031,-0.430192l-3.01409 -4.25642c-0.108485,-0.14973 -0.080739,-0.309958 0.162478,-0.486934zm19.2339 -1.19384l-0.378699 7.0408c-2.92035,-0.101236 -6.13817,-0.270463 -10.2064,-0.59292l0.880131 -6.51462c3.06783,-0.044494 6.36364,-0.00274963 9.70493,0.0667409zm7.55847 0.178976c2.02648,-0.0237468 6.30589,4.93933 9.45872,6.83382l-0.65991 0.395946c-0.876631,-0.555425 -1.88074,-1.71177 -2.42542,-1.20784l-0.893129 1.1366c-4.73536,-0.134732 -8.34037,-0.140231 -12.4231,-0.264214l0.379449 -7.05204c2.1932,0.0487434 4.3979,0.106736 6.56336,0.157729z"/>
   <polygon id="_530820752" class="fil4" points="51.2413,21.4083 49.1303,20.9109 49.79,23.986 50.0132,23.986 50.036,21.8498 51.363,21.8143 "/>
   <circle id="_530820104" class="fil5" cx="10.7867" cy="26.3385" r="2.6927"/>
   <circle id="_530820728" class="fil5" cx="43.2805" cy="26.6902" r="2.6927"/>
   <path id="_530820608" class="fil4" d="M0.507681 21.3928l0.304459 3.21706 0.923375 -1.89774c-0.706654,0.0609917 -1.03561,-0.51393 -1.22783,-1.31932z"/>
  </g>
 </g>
</svg>
