<?xml version="1.0" encoding="UTF-8"?>
<!DOCTYPE svg PUBLIC "-//W3C//DTD SVG 1.1//EN" "http://www.w3.org/Graphics/SVG/1.1/DTD/svg11.dtd">
<!-- Creator: CorelDRAW -->
<svg xmlns="http://www.w3.org/2000/svg" xml:space="preserve" width="247px" height="154px" style="shape-rendering:geometricPrecision; text-rendering:geometricPrecision; image-rendering:optimizeQuality; fill-rule:evenodd; clip-rule:evenodd"
viewBox="0 0 108.708 67.5443"
 xmlns:xlink="http://www.w3.org/1999/xlink">
 <defs>
  <style type="text/css">
   <![CDATA[
    .fil0 {fill:none}
    .fil1 {fill:#1AB861}
    .fil3 {fill:#B8DCC4}
    .fil2 {fill:white}
   ]]>
  </style>
 </defs>
 <g id="Layer_x0020_1">
  <metadata id="CorelCorpID_0Corel-Layer"/>
  <g id="_530819120">
   <rect id="_530820056" class="fil0" x="-0.000104236" y="0.000167888" width="108.708" height="67.5443"/>
   <g>
    <path id="_530819984" class="fil1" d="M34.0003 57.2174c13.7223,0.127678 31.359,0.289092 44.5311,0.174909 -0.146363,-0.670569 -0.223696,-1.36657 -0.223696,-2.08126 0,-5.37701 4.3587,-9.73571 9.73571,-9.73571 5.37701,0 9.73571,4.3587 9.73571,9.73571 0,0.488914 -0.0368502,0.969523 -0.106398,1.43923 9.24265,-1.62556 6.07717,-14.505 5.30175,-15.7117 -3.79349,-5.90226 -17.3663,-5.87215 -24.5448,-11.013 -18.3919,-13.1706 -22.0063,-12.078 -47.5601,-12.0978 -9.26808,-0.00778525 -14.6238,0.103284 -19.3609,2.97656 -3.90093,4.05092 -6.40674,8.32918 -6.88839,20.6039 -0.266256,11.1552 0.646695,14.8901 10.4546,15.5497 -0.104322,-0.566247 -0.113146,1.2119 -0.158819,-1.74701 -0.196707,-12.8233 19.0614,-12.8991 19.2726,0 0.0493066,2.98694 -0.0648771,1.28976 -0.188403,1.90635z"/>
    <path id="_530819480" class="fil2" d="M52.388 21.7727l-0.288573 13.4244c1.82123,0.172314 4.40074,-0.00259508 6.13841,-0.00830427l21.2958 -0.0737004c-5.61005,-5.92198 -15.694,-13.0382 -27.1456,-13.3424z"/>
    <path id="_530819696" class="fil2" d="M30.7382 34.6231c8.22745,0.61244 11.0182,0.521093 18.7194,0.555867 0.240305,-8.10029 0.14792,-5.26802 0.500851,-13.4353l-15.4932 0.0752574c-1.78438,4.53828 -1.88922,6.88787 -3.72706,12.8041z"/>
    <path id="_530818688" class="fil2" d="M11.4012 29.4968c1.70289,3.47949 11.0566,4.52582 17.1307,4.47808l3.53554 -12.2104c-15.3084,-1.16 -18.4407,1.8451 -20.6662,7.73231z"/>
    <path id="_530818592" class="fil1" d="M24.5526 47.1117c4.52894,0 8.19942,3.671 8.19942,8.19942 0,4.52894 -3.67049,8.19942 -8.19942,8.19942 -4.52842,0 -8.19942,-3.67049 -8.19942,-8.19942 0,-4.52842 3.671,-8.19942 8.19942,-8.19942zm0 2.97967c2.88314,0 5.22027,2.33713 5.22027,5.21975 0,2.88314 -2.33713,5.22027 -5.22027,5.22027 -2.88262,0 -5.21975,-2.33713 -5.21975,-5.22027 0,-2.88262 2.33713,-5.21975 5.21975,-5.21975z"/>
    <path id="_530819144" class="fil1" d="M88.0434 47.0483c4.56371,0 8.26274,3.69955 8.26274,8.26274 0,4.56371 -3.69903,8.26326 -8.26274,8.26326 -4.56371,0 -8.26274,-3.69955 -8.26274,-8.26326 0,-4.56319 3.69903,-8.26274 8.26274,-8.26274zm0 2.88106c2.97241,0 5.38168,2.40979 5.38168,5.38168 0,2.97241 -2.40928,5.3822 -5.38168,5.3822 -2.97241,0 -5.38168,-2.40979 -5.38168,-5.3822 0,-2.97189 2.40928,-5.38168 5.38168,-5.38168z"/>
    <circle id="_530819024" class="fil3" cx="88.0432" cy="55.3114" r="4.55981"/>
    <circle id="_530819000" class="fil3" cx="24.5524" cy="55.3114" r="4.55981"/>
    <rect id="_530818568" class="fil1" transform="matrix(0.73545 0.84246 -0.84246 0.73545 75.3537 31.9145)" width="10.4364" height="4.66907" rx="1.22799" ry="1.22799"/>
   </g>
  </g>
 </g>
</svg>
