<svg xmlns="http://www.w3.org/2000/svg" width="86.372" height="102" viewBox="0 0 86.372 102">
  <g id="j-rent" transform="translate(-379.986 -293.765)">
    <g id="Group_304" data-name="Group 304" transform="translate(395.272 381.989)">
      <path id="Path_138" data-name="Path 138" d="M470.653,419.121a4.238,4.238,0,0,1-4.238,4.238h0a4.237,4.237,0,0,1-4.237-4.238v-5.3a4.237,4.237,0,0,1,4.237-4.238h0a4.237,4.237,0,0,1,4.238,4.238Z" transform="translate(-414.854 -409.583)" fill="#108f42"/>
      <path id="Path_139" data-name="Path 139" d="M408.528,419.121a4.238,4.238,0,0,1-4.238,4.238h0a4.238,4.238,0,0,1-4.238-4.238v-5.3a4.237,4.237,0,0,1,4.238-4.238h0a4.237,4.237,0,0,1,4.238,4.238Z" transform="translate(-400.053 -409.583)" fill="#108f42"/>
    </g>
    <path id="Path_140" data-name="Path 140" d="M401.368,311.055c-.658.4-1.314.8-1.975,1.2-.939.558-1.872,1.128-2.831,1.651a7.911,7.911,0,0,1-1.24.452c-.337.116-.676.232-1.02.327a1.179,1.179,0,0,0-.556.348c-.4.414-.8.823-1.223,1.211a1.6,1.6,0,0,1-.554.324c-.576.2-1.162.365-1.741.554a.792.792,0,0,0-.3.178c-.346.337-.681.687-1.022,1.029a2.431,2.431,0,0,1-1.274.69c-.419.083-.839.162-1.254.258a.574.574,0,0,0-.278.159c-.366.4-.721.8-1.081,1.2a1.259,1.259,0,0,1-1.3.414c-.985-.215-1.976-.4-2.964-.6a.919.919,0,0,1-.747-.787.946.946,0,0,1,.014-.455c.34-1.067.693-2.13,1.046-3.193a.846.846,0,0,1,.623-.545c.567-.156,1.139-.292,1.712-.418a.706.706,0,0,0,.444-.276c.22-.289.46-.564.7-.842a2.7,2.7,0,0,1,1.366-.86c.438-.123.878-.239,1.315-.369a.771.771,0,0,0,.3-.174c.487-.464.961-.94,1.448-1.4a.813.813,0,0,1,.318-.182c.625-.181,1.256-.343,1.882-.525a.946.946,0,0,0,.357-.2c.553-.5,1.085-1.015,1.647-1.5a6.886,6.886,0,0,1,.942-.658q1.916-1.156,3.847-2.287c.177-.1.2-.194.1-.359s-.2-.371-.3-.555a3.232,3.232,0,0,1,.743-3.832c1.181-.989,2.317-2.032,3.508-3.009a17.716,17.716,0,0,1,5.327-2.9c1.1-.4,2.19-.823,3.3-1.2a3,3,0,0,1,3.441,1.183c.967,1.534,1.888,3.1,2.812,4.658.5.849.961,1.725,1.453,2.582a3.086,3.086,0,0,1-.746,3.645c-1.258,1.072-2.479,2.189-3.77,3.219a15.583,15.583,0,0,1-4.036,2.31c-1.446.566-2.925,1.052-4.382,1.594a2.862,2.862,0,0,1-1.951-.059,3.454,3.454,0,0,1-1.911-1.735c-.035-.061-.068-.122-.1-.183a.157.157,0,0,0-.031-.027Zm-2.628-4.479c-.107.057-.183.093-.254.135q-2.182,1.283-4.364,2.569a1.37,1.37,0,0,0-.216.165c-.614.554-1.222,1.113-1.843,1.659a1.194,1.194,0,0,1-.436.238c-.6.184-1.212.345-1.816.524a.714.714,0,0,0-.283.163c-.324.31-.647.621-.952.949a2.644,2.644,0,0,1-1.313.786c-.413.106-.82.239-1.229.361a1.408,1.408,0,0,0-.716.488c-.3.364-.6.724-.917,1.067a1,1,0,0,1-.434.27c-.545.153-1.1.281-1.651.408a.587.587,0,0,0-.482.458c-.13.472-.29.936-.433,1.406-.041.13-.07.264-.114.436.1-.054.167-.087.231-.124q6.139-3.611,12.282-7.221c.67-.394,1.353-.763,2.038-1.132a.721.721,0,0,1,.4-.084.389.389,0,0,1,.348.32.45.45,0,0,1-.206.509c-.543.348-1.079.705-1.633,1.034q-6.327,3.751-12.66,7.493c-.068.041-.137.085-.229.143a.623.623,0,0,0,.1.047c.561.12,1.125.233,1.685.359a.8.8,0,0,0,.852-.31q.5-.583,1.031-1.133a.9.9,0,0,1,.409-.233c.441-.11.887-.2,1.336-.276a1.541,1.541,0,0,0,.88-.45c.3-.305.607-.6.906-.906a2.372,2.372,0,0,1,1.085-.65q.739-.2,1.473-.429a.753.753,0,0,0,.3-.177c.442-.439.871-.893,1.317-1.327a1.386,1.386,0,0,1,.454-.289c.476-.184.963-.344,1.444-.515a7.976,7.976,0,0,0,1.276-.473c1.455-.826,2.888-1.693,4.329-2.544.051-.031.1-.069.148-.1l-.065.016Zm11.965-8.913a2.069,2.069,0,0,0,.047.45,3.664,3.664,0,0,0,.289.673q.974,1.7,1.965,3.4c.276.471.565.936.873,1.385a1.026,1.026,0,0,0,1.2.359.924.924,0,0,0,.451-1.074,1.071,1.071,0,0,0-.1-.273c-.906-1.731-1.909-3.406-2.968-5.047a1.1,1.1,0,0,0-.6-.456A.871.871,0,0,0,410.706,297.663Z" fill="#888" fill-rule="evenodd"/>
    <path id="Path_141" data-name="Path 141" d="M399.147,310.583l2.072,3.63.065-.016c-.049.034-.1.072-.148.1-1.441.853-2.873,1.718-4.329,2.544a8.042,8.042,0,0,1-1.276.473c-.481.171-.968.331-1.444.515a1.383,1.383,0,0,0-.454.289c-.447.434-.875.888-1.317,1.327a.755.755,0,0,1-.3.178q-.733.226-1.472.429a2.376,2.376,0,0,0-1.086.65c-.3.3-.608.6-.906.906a1.539,1.539,0,0,1-.88.449c-.449.076-.895.167-1.336.276a.9.9,0,0,0-.409.233q-.535.549-1.031,1.133a.8.8,0,0,1-.852.31c-.56-.127-1.124-.24-1.685-.36a.6.6,0,0,1-.1-.047c.092-.058.161-.1.229-.143q6.331-3.746,12.659-7.493c.554-.328,1.09-.686,1.633-1.034a.45.45,0,0,0,.206-.509.388.388,0,0,0-.348-.32.72.72,0,0,0-.4.084c-.684.369-1.368.739-2.038,1.132q-6.145,3.605-12.282,7.221c-.064.037-.13.07-.231.124.045-.173.074-.306.114-.436.143-.469.3-.933.433-1.406a.586.586,0,0,1,.482-.458c.553-.127,1.105-.255,1.651-.408a1,1,0,0,0,.434-.27c.319-.343.621-.7.916-1.066a1.413,1.413,0,0,1,.716-.488c.409-.122.815-.255,1.229-.361a2.644,2.644,0,0,0,1.313-.786c.305-.328.629-.639.952-.949a.719.719,0,0,1,.283-.163c.6-.178,1.214-.34,1.816-.524a1.2,1.2,0,0,0,.436-.238c.621-.546,1.229-1.105,1.843-1.659a1.36,1.36,0,0,1,.215-.165q2.18-1.286,4.364-2.569C398.965,310.676,399.041,310.639,399.147,310.583Z" transform="translate(-0.407 -4.007)" fill="#fff" fill-rule="evenodd"/>
    <path id="Path_142" data-name="Path 142" d="M420.314,298.682a.871.871,0,0,1,1.147-.586,1.1,1.1,0,0,1,.6.455c1.06,1.641,2.062,3.316,2.968,5.047a1.109,1.109,0,0,1,.1.274.923.923,0,0,1-.451,1.074,1.024,1.024,0,0,1-1.2-.359c-.309-.45-.6-.915-.873-1.385q-.993-1.692-1.965-3.4a3.613,3.613,0,0,1-.289-.673A2.067,2.067,0,0,1,420.314,298.682Z" transform="translate(-9.608 -1.019)" fill="#fff" fill-rule="evenodd"/>
    <path id="Path_143" data-name="Path 143" d="M478.863,309.666a8.411,8.411,0,0,0-6.393-6.639q-12.289-3.383-24.589-6.731c-.98-.268-1.958-.545-2.943-.737a9.551,9.551,0,0,0-2.125-.246c-.021,0-.043,0-.065,0a8.015,8.015,0,0,0-2.528.36,8.847,8.847,0,0,0-.089,17.125v.005c9.315,2.445,18.608,4.979,27.9,7.493a8.9,8.9,0,0,0,10.828-10.633Zm-40.879-4.976a2.071,2.071,0,1,1,2.071-2.071A2.071,2.071,0,0,1,437.985,304.69Z" transform="translate(-12.763 -0.369)" fill="#909090" fill-rule="evenodd"/>
    <path id="Path_144" data-name="Path 144" d="M431.844,295.742c-3.7-1.507-7.621-.456-8.764,2.348s.93,6.3,4.627,7.8,7.621.455,8.764-2.348S435.541,297.249,431.844,295.742Zm-3.723,9.136c-2.958-1.205-4.615-4-3.7-6.243s4.053-3.084,7.011-1.878,4.615,4,3.7,6.243S431.079,306.083,428.12,304.878Z" transform="translate(-10.192 -0.307)" fill="#8d8d8d"/>
    <g id="Group_305" data-name="Group 305" transform="translate(392.035 320.097)">
      <path id="Path_145" data-name="Path 145" d="M457.423,387.476c0,5.048-.284,7.617-5.332,7.617H403.148c-5.048,0-6.094-2.569-6.094-7.617l.762-48.752a9.141,9.141,0,0,1,9.141-9.141H447.52a9.141,9.141,0,0,1,9.141,9.141Z" transform="translate(-396.102 -328.631)" fill="#64be8a"/>
      <path id="Path_146" data-name="Path 146" d="M451.792,395.748H402.85c-5.867,0-7.046-3.279-7.046-8.57l.762-48.767a10.1,10.1,0,0,1,10.093-10.078h40.563a10.1,10.1,0,0,1,10.093,10.093l.762,48.737C458.077,391.586,458.077,395.748,451.792,395.748Zm-45.134-65.51a8.2,8.2,0,0,0-8.189,8.189l-.762,48.767c0,5.155,1.153,6.65,5.142,6.65h48.943c3.95,0,4.38-1.349,4.38-6.665l-.762-48.737a8.2,8.2,0,0,0-8.189-8.2Z" transform="translate(-395.804 -328.333)" fill="#108f42"/>
    </g>
    <g id="Group_306" data-name="Group 306" transform="translate(397.463 374.287)">
      <path id="Path_147" data-name="Path 147" d="M413.974,402.7a2.152,2.152,0,0,0-1.84-2.126l-.018-.005-6.644-1.068a2.7,2.7,0,0,0-.386,5.359h6.729c.011,0,.019,0,.03,0,.034,0,.068-.008.1-.011A2.153,2.153,0,0,0,413.974,402.7Z" transform="translate(-402.929 -399.472)" fill="#f8e617"/>
      <path id="Path_148" data-name="Path 148" d="M455.929,402.7a2.152,2.152,0,0,1,1.84-2.126l.018-.005,6.644-1.068a2.7,2.7,0,0,1,.386,5.359h-6.73c-.01,0-.019,0-.029,0-.035,0-.068-.008-.1-.011A2.153,2.153,0,0,1,455.929,402.7Z" transform="translate(-415.556 -399.472)" fill="#f8e617"/>
    </g>
    <g id="Group_308" data-name="Group 308" transform="translate(392.313 331.967)">
      <g id="Group_307" data-name="Group 307" transform="translate(0 0)">
        <path id="Path_149" data-name="Path 149" d="M457.231,375.045l-.465-29.879H397.886l-.467,29.879s0,3.839,11.212,3.765c2.66-.018,33.255-.085,37.833.014C455.986,379.028,457.231,375.045,457.231,375.045Z" transform="translate(-396.467 -344.214)" fill="#ebf5f5"/>
        <path id="Path_150" data-name="Path 150" d="M446.865,379.486h0c-.234,0-.473,0-.717-.008-1.589-.033-6.651-.052-14.642-.052-9.814,0-21.465.027-23.165.039h-.321c-11.517,0-11.85-4.236-11.85-4.719l.482-30.831h60.754l.481,30.816a4.3,4.3,0,0,1-2.123,2.7C453.736,378.795,450.743,379.486,446.865,379.486Zm-15.36-1.964c8.117,0,13.057.018,14.681.053,7.63.161,9.478-2.449,9.791-3.023l-.448-28.731h-57l-.452,28.941c.092.731,2.063,2.8,9.945,2.8h.309C410.028,377.549,421.687,377.522,431.5,377.522Z" transform="translate(-396.169 -343.916)" fill="#108f42"/>
      </g>
      <path id="Path_151" data-name="Path 151" d="M413.677,381.147c3.784,0,6.853,2.69,6.853,6.008h1.146c0-3.9-3.581-7.054-8-7.054s-8,3.158-8,7.054h1.146C406.825,383.837,409.892,381.147,413.677,381.147Z" transform="translate(-398.435 -352.537)" fill="#108f42"/>
    </g>
    <g id="Group_313" data-name="Group 313" transform="translate(386.316 331.771)">
      <g id="Group_310" data-name="Group 310" transform="translate(0 0)">
        <g id="Group_309" data-name="Group 309" transform="translate(0 6.863)">
          <path id="Path_152" data-name="Path 152" d="M395.211,363.593a3.114,3.114,0,0,1-2.957,3.25h0a3.115,3.115,0,0,1-2.958-3.25v-6.675a3.114,3.114,0,0,1,2.958-3.25h0a3.114,3.114,0,0,1,2.957,3.25Z" transform="translate(-388.534 -352.905)" fill="#64be8a"/>
          <path id="Path_153" data-name="Path 153" d="M392.016,367.366a3.879,3.879,0,0,1-3.72-4.012v-6.675a3.73,3.73,0,1,1,7.438,0v6.675A3.878,3.878,0,0,1,392.016,367.366Zm0-13.176a2.359,2.359,0,0,0-2.2,2.489v6.675a2.213,2.213,0,1,0,4.391,0v-6.675A2.359,2.359,0,0,0,392.016,354.19Z" transform="translate(-388.296 -352.667)" fill="#108f42"/>
        </g>
        <path id="Path_154" data-name="Path 154" d="M393.7,357.593l-1.523-.021c.142-10.45,4.613-13.777,4.8-13.914l.888,1.238-.444-.619.449.616C397.828,344.922,393.826,347.992,393.7,357.593Z" transform="translate(-389.219 -343.658)" fill="#108f42"/>
      </g>
      <g id="Group_312" data-name="Group 312" transform="translate(65.227 0)">
        <g id="Group_311" data-name="Group 311" transform="translate(1.045 6.863)">
          <path id="Path_155" data-name="Path 155" d="M482.211,363.593a3.114,3.114,0,0,1-2.957,3.25h0a3.115,3.115,0,0,1-2.958-3.25v-6.675a3.114,3.114,0,0,1,2.958-3.25h0a3.114,3.114,0,0,1,2.957,3.25Z" transform="translate(-475.534 -352.905)" fill="#64be8a"/>
          <path id="Path_156" data-name="Path 156" d="M479.016,367.366a3.879,3.879,0,0,1-3.72-4.012v-6.675a3.73,3.73,0,1,1,7.439,0v6.675A3.878,3.878,0,0,1,479.016,367.366Zm0-13.176a2.359,2.359,0,0,0-2.2,2.489v6.675a2.213,2.213,0,1,0,4.391,0v-6.675A2.359,2.359,0,0,0,479.016,354.19Z" transform="translate(-475.296 -352.667)" fill="#108f42"/>
        </g>
        <path id="Path_157" data-name="Path 157" d="M478.1,357.593c-.13-9.6-4.133-12.67-4.173-12.7l.893-1.235c.19.136,4.661,3.464,4.8,13.914Z" transform="translate(-473.924 -343.658)" fill="#108f42"/>
      </g>
    </g>
    <g id="Group_314" data-name="Group 314" transform="translate(412.316 329.492)">
      <path id="Path_158" data-name="Path 158" d="M443.615,344.269c0,1.437-.674,2.6-1.5,2.6H424.929c-.829,0-1.5-1.166-1.5-2.6h0c0-1.437.672-2.6,1.5-2.6h17.183c.829,0,1.5,1.166,1.5,2.6Z" transform="translate(-422.666 -340.904)" fill="#f9881f"/>
      <path id="Path_159" data-name="Path 159" d="M441.874,347.4H424.691c-1.29,0-2.263-1.447-2.263-3.365s.973-3.365,2.263-3.365h17.183c1.291,0,2.265,1.447,2.265,3.365S443.164,347.4,441.874,347.4Zm-17.183-5.205c-.214,0-.74.645-.74,1.841s.525,1.841.74,1.841h17.183c.215,0,.741-.645.741-1.841s-.526-1.841-.741-1.841Z" transform="translate(-422.428 -340.666)" fill="#108f42"/>
    </g>
    <g id="Group_315" data-name="Group 315" transform="translate(413.619 374.504)">
      <rect id="Rectangle_141" data-name="Rectangle 141" width="19.106" height="0.762" transform="translate(0 2.158)" fill="#108f42"/>
      <rect id="Rectangle_142" data-name="Rectangle 142" width="18.282" height="0.762" transform="translate(0.412 4.19)" fill="#108f42"/>
      <rect id="Rectangle_143" data-name="Rectangle 143" width="13.711" height="0.762" transform="translate(2.697 0)" fill="#108f42"/>
    </g>
  </g>
</svg>
