<?xml version="1.0" encoding="UTF-8"?>
<!DOCTYPE svg PUBLIC "-//W3C//DTD SVG 1.1//EN" "http://www.w3.org/Graphics/SVG/1.1/DTD/svg11.dtd">
<!-- Creator: CorelDRAW -->
<svg xmlns="http://www.w3.org/2000/svg" xml:space="preserve" width="139px" height="139px" style="shape-rendering:geometricPrecision; text-rendering:geometricPrecision; image-rendering:optimizeQuality; fill-rule:evenodd; clip-rule:evenodd"
viewBox="0 0 161.907 161.907"
 xmlns:xlink="http://www.w3.org/1999/xlink">
 <defs>
  <style type="text/css">
   <![CDATA[
    .fil1 {fill:#15A430}
    .fil0 {fill:white}
   ]]>
  </style>
 </defs>
 <g id="Layer_x0020_1">
  <metadata id="CorelCorpID_0Corel-Layer"/>
  <g id="_577377872">
   <circle id="_571815368" class="fil0" cx="80.9534" cy="80.9534" r="80.9534"/>
   <circle id="_585913192" class="fil1" cx="80.9534" cy="80.9534" r="65.5273"/>
   <g>
    <path id="_585911944" class="fil0" d="M22.134 96.9612l10.7768 0c6.84673,0 12.6827,-5.60224 12.6827,-12.449l0 -19.5666 -7.9977 0 0 19.1307c0,2.68836 -2.19882,4.88718 -4.88718,4.88718l-10.5747 0 0 7.9977z"/>
    <path id="_585911848" class="fil0" d="M64.6953 64.9456c8.84065,0 16.0078,7.16713 16.0078,16.0078 0,8.84065 -7.16713,16.0078 -16.0078,16.0078 -8.84065,0 -16.0078,-7.16713 -16.0078,-16.0078 0,-8.84065 7.16713,-16.0078 16.0078,-16.0078zm0 7.53016c4.68229,0 8.47762,3.79533 8.47762,8.47762 0,4.68229 -3.79533,8.47762 -8.47762,8.47762 -4.68229,0 -8.47762,-3.79533 -8.47762,-8.47762 0,-4.68229 3.79533,-8.47762 8.47762,-8.47762z"/>
    <path id="_585912136" class="fil0" d="M102.759 65.0625l-6.78897 12.7597 -5.47436 -12.7597 -8.63851 0 9.32745 21.7654c-2.39959,2.39959 -3.50381,2.25657 -9.37695,2.25657l0 7.83819c10.0123,0 13.0733,-1.37237 17.4187,-8.56563l12.6099 -23.2946 -9.07717 0z"/>
    <path id="_585912376" class="fil0" d="M139.771 96.9227l0 -18.0113c0,-7.6168 -6.23067,-13.8488 -13.8475,-13.8488l-2.49034 0c-7.6168,0 -13.8488,6.23205 -13.8488,13.8488l0 18.0113 7.78044 0 0 -17.7569c0,-3.69083 3.01977,-6.71059 6.70922,-6.71059l1.20736 0c3.69083,0 6.70922,3.01977 6.70922,6.71059l0 17.7569 7.78044 0z"/>
   </g>
   <path id="_585124808" class="fil1" d="M89.2234 4.85693c3.20266,0.342405 6.34343,0.884203 9.41408,1.60889 4.17349,1.58276 3.34292,7.42153 -1.72165,6.54283 -2.41884,-0.5638 -4.88443,-1.00659 -7.39265,-1.31049l0.00137512 -0.00412536c-5.44273,-0.442789 -4.68779,-6.88523 -0.301152,-6.8371zm21.0174 5.34922c10.6407,4.40176 20.0726,11.1357 27.6592,19.5611 2.44084,3.70183 -1.66527,7.99908 -5.3396,4.16937l-0.132012 -0.141637 -0.0192517 -0.0206268 -0.165015 -0.188392 -0.00550048 0.00412536c-6.73122,-7.27852 -14.9943,-13.12 -24.2791,-17.0116 -4.40726,-2.16857 -1.82891,-7.74056 2.28133,-6.37231zm34.9597 29.0618c6.47132,9.94488 10.6957,21.4863 11.9498,33.9064 -0.151263,4.45402 -5.95565,5.56099 -6.75322,0.440039 -1.13585,-10.8758 -4.77167,-21.0091 -10.3217,-29.814l0 0 -0.0302527 -0.0481292 -0.173265 -0.270899c-2.63886,-4.35088 2.66498,-7.59617 5.32859,-4.21337zm12.2221 45.9057c-0.0385034,0.693061 -0.0866326,1.38337 -0.143013,2.07231 -1.01071,4.39626 -7.10663,4.31788 -6.69271,-1.1716l0.00275024 -0.0440039 0.0165015 -0.16914 0.00687561 0.00137512c0.159514,-5.4441 6.59783,-5.03982 6.8096,-0.688936zm-2.06956 13.9754c-0.976336,3.99885 -2.26895,7.87394 -3.84484,11.5978 -2.26207,3.84209 -7.87669,2.04068 -6.15367,-2.81075 1.34212,-3.19578 2.45459,-6.5112 3.31404,-9.927 1.4205,-4.7868 7.3624,-3.1174 6.68446,1.13998zm-9.39208 22.2715c-6.93749,11.1137 -16.65,20.3188 -28.1652,26.6457 -4.15699,1.62127 -7.45178,-3.26454 -3.11877,-6.00378 10.1319,-5.59537 18.7237,-13.6357 24.9791,-23.3276l0.00825073 0.00550048c2.76124,-4.70016 8.21772,-1.23898 6.29668,2.68011zm-39.367 31.6704c-6.95674,2.46834 -14.3783,3.95897 -22.0954,4.3055 -4.43752,-0.418037 -5.19383,-6.30631 0.0288775,-6.7711l0.511545 -0.0261273 0.0440039 -0.00137512 0 -0.00137512c6.65009,-0.382284 13.0485,-1.69827 19.0702,-3.81459 4.71254,-1.28711 6.49195,4.62178 2.44084,6.30906zm-34.0893 3.91084c-1.32699,-0.147138 -2.64298,-0.331404 -3.94797,-0.544548 -4.23675,-1.32424 -3.77746,-7.20013 1.36962,-6.62533 0.760442,0.121011 1.52363,0.235146 2.29233,0.331404l0 0.00137512 0.192517 0.0206268 0.0825073 0.00825073c5.13333,0.655933 4.311,6.86048 0.011001,6.80823zm-15.7314 -3.45293c-15.9212,-5.31347 -29.5129,-15.7149 -38.8444,-29.275 -1.98017,-3.98235 2.60448,-7.72406 5.75626,-3.56156l0.297026 0.423537 0.0316278 0.0481292 0.00275024 0c8.42949,11.9168 20.5031,21.0765 34.598,25.8509 4.5324,1.86329 2.34871,7.58792 -1.84129,6.51395zm-44.9101 -39.7836c-0.499169,-1.05059 -0.976336,-2.11356 -1.42875,-3.19028 -1.20736,-4.289 3.9246,-7.07225 6.23205,-2.62236 0.371283,0.885578 0.761817,1.76016 1.16885,2.62786 1.80416,4.56128 -3.84621,6.95949 -5.97215,3.18478zm-5.25434 -14.8444c-1.38887,-5.76451 -2.12456,-11.7834 -2.12456,-17.9742 0,-3.88472 0.290151,-7.70068 0.84845,-11.4286 1.23486,-4.27938 7.10113,-3.93697 6.66384,1.15785 -0.495044,3.35117 -0.752191,6.78072 -0.752191,10.2708 0,5.54586 0.647682,10.9405 1.87154,16.1123 0.831948,4.84318 -5.21721,6.02716 -6.50707,1.86191zm1.50576 -41.3169c2.38859,-7.46691 5.89239,-14.4333 10.3162,-20.7066 3.04177,-3.22741 8.13247,-0.246147 5.34647,4.14874l-0.313528 0.45654 -0.0220019 0.0302527 0.00137512 0c-3.74996,5.46473 -6.74222,11.4891 -8.82415,17.9247 -1.83166,4.5104 -7.57967,2.36796 -6.50432,-1.85366zm17.911 -29.8745c13.0939,-13.5271 31.1341,-22.2398 51.2068,-23.2175 4.44164,0.415287 5.20208,6.33793 -0.0893829,6.7766l-0.275024 0.0165015 -0.209018 0.00825073 0 0.00550048c-17.5397,1.08085 -33.3233,8.63989 -44.9912,20.3147l-0.00962585 -0.00825073c-3.67157,3.98923 -8.24523,-0.477167 -5.6325,-3.89572z"/>
  </g>
 </g>
</svg>
