<?xml version="1.0" encoding="UTF-8"?>
<!DOCTYPE svg PUBLIC "-//W3C//DTD SVG 1.1//EN" "http://www.w3.org/Graphics/SVG/1.1/DTD/svg11.dtd">
<!-- Creator: CorelDRAW -->
<svg xmlns="http://www.w3.org/2000/svg" xml:space="preserve" width="155px" height="151px" style="shape-rendering:geometricPrecision; text-rendering:geometricPrecision; image-rendering:optimizeQuality; fill-rule:evenodd; clip-rule:evenodd"
viewBox="0 0 72.9033 70.7851"
 xmlns:xlink="http://www.w3.org/1999/xlink">
 <defs>
  <style type="text/css">
   <![CDATA[
    .fil1 {fill:#15A430}
    .fil2 {fill:#D2F7DE}
    .fil0 {fill:white}
    .fil7 {fill:white;fill-rule:nonzero}
    .fil4 {fill:url(#id0)}
    .fil3 {fill:url(#id1)}
    .fil5 {fill:url(#id2)}
    .fil6 {fill:url(#id3);fill-rule:nonzero}
   ]]>
  </style>
  <linearGradient id="id0" gradientUnits="userSpaceOnUse" x1="30.3009" y1="15.8706" x2="30.3009" y2="8.64269">
   <stop offset="0" style="stop-color:#15A430"/>
   <stop offset="0.721569" style="stop-color:#89D197"/>
   <stop offset="1" style="stop-color:#FEFEFE"/>
  </linearGradient>
  <linearGradient id="id1" gradientUnits="userSpaceOnUse" x1="31.2991" y1="34.0384" x2="31.2991" y2="8.67925">
   <stop offset="0" style="stop-color:white"/>
   <stop offset="0.160784" style="stop-color:#15A430"/>
   <stop offset="0.811765" style="stop-color:#1AA634"/>
   <stop offset="1" style="stop-color:#FEFEFE"/>
  </linearGradient>
  <linearGradient id="id2" gradientUnits="userSpaceOnUse" x1="37.7748" y1="21.8865" x2="46.2612" y2="30.1026">
   <stop offset="0" style="stop-color:#15A430"/>
   <stop offset="0.34902" style="stop-color:#18A532"/>
   <stop offset="1" style="stop-color:#FEFEFE"/>
  </linearGradient>
  <linearGradient id="id3" gradientUnits="userSpaceOnUse" x1="39.6438" y1="18.9799" x2="44.2798" y2="9.35395">
   <stop offset="0" style="stop-color:#15A430"/>
   <stop offset="0.458824" style="stop-color:#16A431"/>
   <stop offset="1" style="stop-color:#FEFEFE"/>
  </linearGradient>
 </defs>
 <g id="Layer_x0020_1">
  <metadata id="CorelCorpID_0Corel-Layer"/>
  <g id="_577377992">
   <ellipse id="_577380368" class="fil0" cx="36.4517" cy="35.3924" rx="36.4517" ry="35.3924"/>
   <ellipse id="_577379960" class="fil1" cx="36.4517" cy="35.3924" rx="33.7914" ry="32.8095"/>
   <g>
    <path id="_577374752" class="fil0" d="M20.6744 60.9713l2.8905 0c1.83634,0 3.40234,-1.50231 3.40234,-3.33864l0 -5.24865 -2.14544 0 0 5.13121c0,0.721239 -0.589954,1.31064 -1.31064,1.31064l-2.83676 0 0 2.14544z"/>
    <path id="_577374344" class="fil0" d="M32.0907 52.384c2.37145,0 4.2942,1.9222 4.2942,4.29365 0,2.37145 -1.92275,4.29365 -4.2942,4.29365 -2.37145,0 -4.29365,-1.9222 -4.29365,-4.29365 0,-2.37145 1.9222,-4.29365 4.29365,-4.29365zm0 2.01969c1.2558,0 2.27395,1.01816 2.27395,2.27395 0,1.2558 -1.01816,2.27395 -2.27395,2.27395 -1.2558,0 -2.27395,-1.01816 -2.27395,-2.27395 0,-1.2558 1.01816,-2.27395 2.27395,-2.27395z"/>
    <path id="_577366592" class="fil0" d="M41.9222 52.3829l-1.82138 3.42284 -1.46796 -3.42284 -2.31716 0 2.50163 5.8386c-0.643687,0.643687 -0.939495,0.60491 -2.51547,0.60491l0 2.10278c2.68554,0 3.50704,-0.368375 4.67255,-2.29777l3.3824 -6.24853 -2.4346 0z"/>
    <path id="_603755392" class="fil0" d="M52.2295 60.9292l0 -4.83153c0,-2.04296 -1.67181,-3.71477 -3.71477,-3.71477l-0.66806 0c-2.04296,0 -3.71477,1.67181 -3.71477,3.71477l0 4.83153 2.08727 0 0 -4.76339c0,-0.989904 0.809871,-1.79977 1.79977,-1.79977l0.323505 0c0.989904,0 1.79977,0.809871 1.79977,1.79977l0 4.76339 2.08727 0z"/>
   </g>
   <g>
    <circle id="_577364432" class="fil0" cx="36.4514" cy="20.4634" r="12.4034"/>
    <circle id="_577364624" class="fil2" cx="36.4514" cy="20.4634" r="9.08695"/>
    <path id="_585125264" class="fil3" d="M29.6085 18.1013c-0.224349,0.928416 -0.271434,0.157875 -0.269772,1.77152l-0.00110789 11.0612c-0.00387763,3.10432 3.90921,2.95697 3.92527,0.149566l-0.00221579 -8.9961c-0.00609342,-2.11719 0.00221579,-1.96928 -0.280851,-4.02498 0.693542,-0.256478 1.17104,-0.709053 1.56989,-1.23918 0.525142,-0.699082 0.566134,-1.31396 0.565026,-2.33932 -0.00166184,-0.934509 -0.000553947,-2.15929 -0.000553947,-3.0938 0,-0.722347 0.278636,-2.30221 -0.490797,-2.42297 -0.977163,-0.153443 -0.713484,1.29291 -0.713484,2.05348 0,0.959991 -0.000553947,2.20859 0,3.16802 0,1.06358 0.052625,1.57875 -0.591616,2.21801 -0.469193,0.46587 -1.15941,0.824828 -2.07066,0.809871 -0.810425,-0.0138487 -1.62694,-0.402166 -1.99255,-0.812087 -0.572228,-0.642579 -0.570566,-1.20705 -0.570012,-2.28946 0,-0.935063 0,-2.15929 0,-3.09435 0,-0.757246 0.241521,-2.34154 -0.792145,-2.03576 -0.686895,0.202745 -0.412691,1.74826 -0.412691,2.40524 0,0.959437 0.00221579,2.20803 -0.000553947,3.16802 -0.00498553,2.13768 0.665291,2.603 2.12882,3.54305z"/>
    <path id="_585124616" class="fil0" d="M32.0558 20.8323c0,-0.55007 0.0902934,-1.69508 -0.107466,-2.02745 -0.201637,-0.337908 -0.839784,-0.582199 -1.22145,-0.116883 -0.314642,0.383885 -0.170062,2.71268 -0.170062,3.39957 0,2.36148 0,5.30183 0,7.66442 0,0.391641 -0.0465316,1.43472 0.0498553,1.74881 0.141257,0.46033 0.73675,0.671938 1.16606,0.322397 0.389979,-0.317412 0.283621,-0.88133 0.283067,-1.4807l0 -9.51017z"/>
    <path id="_585124232" class="fil4" d="M30.055 8.99278c-0.580537,0.18945 -0.416014,0.837568 -0.419892,1.51172l-0.00332368 4.12857c-0.00332368,0.563918 0.0609342,1.23752 0.754476,1.05804 0.587738,-0.152336 0.452021,-0.90792 0.452021,-1.50231 -0.000553947,-0.639255 0.00332368,-1.56878 0,-2.20803 -0.00664737,-1.30178 0.289161,-3.33809 -0.783282,-2.98799z"/>
    <path id="_585124568" class="fil1" d="M32.1893 8.99057c-0.569458,0.175601 -0.432633,0.835907 -0.432079,1.43971l-0.00110789 4.12802c-0.00332368,0.611004 0.0265895,1.34554 0.807655,1.1162 0.535667,-0.156767 0.398288,-0.943372 0.398288,-1.48569l0.00110789 -4.12802c0.00498553,-0.592724 -0.0537329,-1.29181 -0.773864,-1.07023z"/>
    <path id="_585124040" class="fil5" d="M40.3612 18.8674c-0.219917,0.88133 -0.265895,0.15012 -0.264233,1.68178l-0.00166184 10.5012c-0.00332368,2.94645 3.83332,2.80685 3.84883,0.141811l-0.00166184 -8.54076c-0.00609342,-2.00972 0.00166184,-1.86957 -0.275866,-3.82113 0.521818,-0.18668 0.918999,-0.483042 1.25247,-0.838676l-2.41909 0c-0.167846,0.0260355 -0.345109,0.0382224 -0.531789,0.0354526 -0.134055,-0.00221579 -0.268111,-0.0144026 -0.400504,-0.0354526l-2.45011 0c0.319074,0.296362 0.731764,0.557271 1.24361,0.875791z"/>
    <path id="_585124520" class="fil0" d="M42.7609 21.4599c0,-0.521818 0.0886316,-1.60922 -0.10525,-1.92441 -0.197759,-0.321289 -0.82372,-0.552839 -1.19763,-0.111343 -0.308549,0.364497 -0.166738,2.5753 -0.166738,3.2273 0,2.24182 0,5.03372 0,7.27665 0,0.371699 -0.0459776,1.36216 0.0487474,1.65963 0.138487,0.437618 0.722347,0.638147 1.14335,0.306333 0.382224,-0.301347 0.278082,-0.83646 0.277528,-1.40536l0 -9.02879z"/>
    <ellipse id="_585124736" class="fil0" cx="41.9618" cy="14.1668" rx="3.91873" ry="4.88401"/>
    <path id="_585124712" class="fil6" d="M41.9621 8.82493c1.23586,0 2.34652,0.614328 3.14365,1.60756 0.770541,0.960545 1.24749,2.28116 1.24749,3.73416 0,1.453 -0.476949,2.77361 -1.24749,3.73416 -0.79713,0.993228 -1.90779,1.60756 -3.14365,1.60756 -1.23641,0 -2.34707,-0.614328 -3.1442,-1.60756 -0.770541,-0.960545 -1.24749,-2.28116 -1.24749,-3.73416 0,-1.453 0.476949,-2.77361 1.24749,-3.73416 0.79713,-0.993228 1.90779,-1.60756 3.1442,-1.60756zm2.39748 2.16926c-0.620975,-0.774418 -1.46962,-1.25358 -2.39748,-1.25358 -0.928416,0 -1.77706,0.479164 -2.39804,1.25358 -0.647564,0.806547 -1.04807,1.92829 -1.04807,3.17246 0,1.24472 0.400504,2.36591 1.04807,3.17301 0.620975,0.774418 1.46962,1.25358 2.39804,1.25358 0.927862,0 1.77651,-0.479164 2.39748,-1.25358 0.647564,-0.807101 1.04807,-1.92829 1.04807,-3.17301 0,-1.24417 -0.400504,-2.36591 -1.04807,-3.17246z"/>
   </g>
   <path id="_577363496" class="fil7" d="M12.3414 47.5265l0 -12.0888 5.49682 0c1.38265,0 2.3853,0.109682 3.0107,0.326829 0.62596,0.216593 1.1295,0.602141 1.50563,1.15664 0.37613,0.557271 0.56281,1.19043 0.56281,1.90558 0,0.906258 -0.286391,1.65741 -0.854741,2.24847 -0.569458,0.588292 -1.42364,0.96276 -2.55924,1.11454 0.56558,0.309657 1.03256,0.647564 1.39982,1.01649 0.367267,0.368375 0.861388,1.02148 1.48458,1.96153l1.58041 2.35871 -3.1226 0 -1.88674 -2.6318c-0.671384,-0.940049 -1.1295,-1.53111 -1.37601,-1.77596 -0.247061,-0.244845 -0.508524,-0.411029 -0.786051,-0.503538 -0.27642,-0.0902934 -0.713484,-0.135163 -1.31562,-0.135163l-0.526804 0 0 5.04646 -2.61297 0zm2.61297 -6.97752l1.92995 0c1.25192,0 2.0352,-0.0476395 2.34818,-0.146242 0.309657,-0.0986026 0.553947,-0.270326 0.73121,-0.512401 0.175047,-0.242075 0.265341,-0.542868 0.265341,-0.906258 0,-0.408259 -0.116883,-0.734534 -0.349541,-0.984918 -0.23155,-0.250384 -0.560041,-0.408259 -0.984364,-0.475841 -0.2105,-0.0254816 -0.845878,-0.0393303 -1.90558,-0.0393303l-2.0352 0 0 3.06499zm15.8296 4.19117l2.47171 0.385547c-0.31852,0.846985 -0.818734,1.49178 -1.50507,1.93383 -0.683571,0.444266 -1.54219,0.664183 -2.57087,0.664183 -1.62861,0 -2.83344,-0.495783 -3.61617,-1.49178 -0.617097,-0.796576 -0.927862,-1.80421 -0.927862,-3.01735 0,-1.45245 0.407151,-2.5897 1.21979,-3.41121 0.809871,-0.822058 1.83689,-1.23309 3.07662,-1.23309 1.39429,0 2.49332,0.430971 3.30042,1.29181 0.803224,0.861388 1.18877,2.17867 1.15609,3.95463l-6.21086 0c0.0177263,0.686895 0.216593,1.22145 0.598817,1.60146 0.382224,0.382778 0.860834,0.574443 1.42974,0.574443 0.388871,0 0.714038,-0.0986026 0.978825,-0.295808 0.264787,-0.199421 0.466424,-0.517941 0.598817,-0.956667zm0.141811 -2.34209c-0.0182803,-0.672492 -0.201637,-1.18212 -0.553947,-1.53111 -0.35231,-0.348987 -0.782728,-0.52348 -1.28904,-0.52348 -0.54176,0 -0.987134,0.186126 -1.33944,0.554501 -0.351757,0.366159 -0.526804,0.866928 -0.52071,1.50009l3.70314 0zm3.60897 2.62903l2.48667 -0.354526c0.105804,0.450359 0.319628,0.793807 0.644795,1.02702 0.321843,0.233766 0.77331,0.35231 1.35772,0.35231 0.640363,0 1.1223,-0.110236 1.44525,-0.332368 0.219363,-0.151782 0.327937,-0.360066 0.327937,-0.616543 0,-0.177263 -0.0603803,-0.323505 -0.177817,-0.438726 -0.122976,-0.110236 -0.400504,-0.211054 -0.827597,-0.304117 -1.9992,-0.411029 -3.26663,-0.788267 -3.80229,-1.12894 -0.740628,-0.472517 -1.11066,-1.13116 -1.11066,-1.97261 0,-0.757246 0.31852,-1.3965 0.959437,-1.91112 0.642025,-0.517941 1.6347,-0.777188 2.98134,-0.777188 1.28183,0 2.23629,0.197205 2.86003,0.585522 0.622083,0.391087 1.05028,0.9683 1.28516,1.73386l-2.33655 0.40272c-0.0991566,-0.340678 -0.288053,-0.602695 -0.568904,-0.782728 -0.279743,-0.182803 -0.676924,-0.273096 -1.19486,-0.273096 -0.653658,0 -1.12008,0.0847539 -1.40315,0.256478 -0.18668,0.120761 -0.279743,0.278636 -0.279743,0.469747 0,0.166184 0.0814303,0.304117 0.246507,0.419338 0.222687,0.155105 0.993781,0.371699 2.3155,0.653104 1.31895,0.278636 2.23961,0.622083 2.76364,1.03034 0.517387,0.413799 0.776634,0.987688 0.776634,1.72222 0,0.802116 -0.358404,1.49455 -1.07743,2.07176 -0.716808,0.576659 -1.77651,0.864158 -3.18243,0.864158 -1.27629,0 -2.28503,-0.242075 -3.03175,-0.726225 -0.743397,-0.48138 -1.2281,-1.14002 -1.45744,-1.97039zm15.2125 -6.25683l0 1.84631 -1.69176 0 0 3.52975c0,0.714592 0.0149566,1.13116 0.0481934,1.24971 0.0326829,0.117991 0.10525,0.213824 0.219917,0.292484 0.113559,0.0758908 0.25537,0.115221 0.41823,0.115221 0.232104,0 0.563364,-0.0758908 0.999321,-0.222133l0.211054 1.7959c-0.578321,0.230442 -1.2281,0.346217 -1.95987,0.346217 -0.445928,0 -0.849755,-0.0703513 -1.20761,-0.208284 -0.35785,-0.140703 -0.619867,-0.324059 -0.788821,-0.546192 -0.1684,-0.222133 -0.282513,-0.52348 -0.348987,-0.903488 -0.0509632,-0.267557 -0.0786605,-0.813195 -0.0786605,-1.63248l0 -3.8167 -1.13781 0 0 -1.84631 1.13781 0 0 -1.74216 2.48722 -1.35108 0 3.09324 1.69176 0zm1.14667 4.25265c0,-0.768325 0.205514,-1.51394 0.608788,-2.23462 0.406043,-0.717916 0.981041,-1.26909 1.72499,-1.64633 0.743397,-0.380008 1.57487,-0.571674 2.49221,-0.571674 1.41534,0 2.57752,0.430971 3.48377,1.29181 0.905704,0.861388 1.35772,1.94768 1.35772,3.2622 0,1.32283 -0.45756,2.42075 -1.36991,3.29322 -0.915121,0.872467 -2.06512,1.30621 -3.45275,1.30621 -0.860834,0 -1.6768,-0.180587 -2.45676,-0.543422 -0.779958,-0.362835 -1.37324,-0.895179 -1.77928,-1.59592 -0.403274,-0.700743 -0.608788,-1.55382 -0.608788,-2.56145zm2.54151 0.124084c0,0.869697 0.219917,1.53388 0.662521,1.99532 0.438726,0.461992 0.98381,0.692434 1.63193,0.692434 0.64701,0 1.18877,-0.230442 1.62528,-0.692434 0.43928,-0.461438 0.659197,-1.13116 0.659197,-2.01249 0,-0.855295 -0.219917,-1.51671 -0.659197,-1.97815 -0.43651,-0.461992 -0.978271,-0.692434 -1.62528,-0.692434 -0.648118,0 -1.1932,0.230442 -1.63193,0.692434 -0.442604,0.461438 -0.662521,1.12839 -0.662521,1.99532z"/>
  </g>
 </g>
</svg>
