<?xml version="1.0" encoding="UTF-8"?>
<!DOCTYPE svg PUBLIC "-//W3C//DTD SVG 1.1//EN" "http://www.w3.org/Graphics/SVG/1.1/DTD/svg11.dtd">
<!-- Creator: CorelDRAW -->
<svg xmlns="http://www.w3.org/2000/svg" xml:space="preserve" width="155px" height="151px" style="shape-rendering:geometricPrecision; text-rendering:geometricPrecision; image-rendering:optimizeQuality; fill-rule:evenodd; clip-rule:evenodd"
viewBox="0 0 120.653 117.148"
 xmlns:xlink="http://www.w3.org/1999/xlink">
 <defs>
  <style type="text/css">
   <![CDATA[
    .fil1 {fill:#15A430}
    .fil0 {fill:white}
    .fil2 {fill:#06B856;fill-rule:nonzero}
    .fil3 {fill:white;fill-rule:nonzero}
   ]]>
  </style>
 </defs>
 <g id="Layer_x0020_1">
  <metadata id="CorelCorpID_0Corel-Layer"/>
  <g id="_577366568">
   <ellipse id="_576798960" class="fil0" cx="60.3266" cy="58.5735" rx="60.3266" ry="58.5735"/>
   <ellipse id="_576799080" class="fil1" cx="60.3266" cy="58.5736" rx="55.924" ry="54.2989"/>
   <g>
    <path id="_602774432" class="fil0" d="M53.9537 22.1143l0.163185 0c0.261279,-0.306201 0.522558,-0.590399 0.783838,-0.851679l-0.41988 -1.64285 -6.47331 0.571147 -0.0559229 -1.20739 6.06351 -0.534476c-0.909435,-1.3449 -1.52092,-2.42485 -2.30934,-2.35793 -0.0550062,0.0742583 -0.123764,0.139349 -0.20444,0.196189 -0.190688,0.134765 -0.446467,0.221858 -0.722414,0.275031 -0.285115,0.0550062 -0.591316,0.0742583 -0.867264,0.0742583l-2.98317 0c-0.451967,0 -0.863597,-0.185187 -1.16155,-0.483137 -0.29795,-0.29795 -0.482221,-0.708663 -0.482221,-1.16155l0 0c0,-0.451967 0.184271,-0.863597 0.482221,-1.16155 0.29795,-0.29795 0.709579,-0.482221 1.16155,-0.482221l2.32951 0c0.530809,0 1.11479,0.276864 1.59151,0.677492 0.411629,0.345622 0.747167,0.786588 0.903018,1.22205 1.13038,0.581232 1.73361,2.1214 2.60637,3.17019 0.584899,-0.0641738 0.791172,-0.000916769 0.829676,0.253028l0.482221 1.88854c2.84932,-2.36526 5.77106,-2.17733 8.75148,0.0513391l0.495972 -1.93988c0.0375875,-0.253945 0.243861,-0.317202 0.828759,-0.253028 0.873681,-1.04878 1.476,-2.58896 2.60637,-3.17019 0.156768,-0.435465 0.491388,-0.876431 0.903018,-1.22205 0.47672,-0.400628 1.0607,-0.677492 1.59243,-0.677492l2.32859 0c0.143016,0 0.282365,0.0183354 0.415296,0.0531726l0.26403 0c0.832426,0 1.51359,0.68116 1.51359,1.5145l0 0c0,0.790255 -0.613319,1.44391 -1.38707,1.509 -0.23836,0.134765 -0.513391,0.211774 -0.80584,0.211774l-2.98317 0c-0.275948,0 -0.582148,-0.0192522 -0.866347,-0.0742583 -0.275948,-0.0531726 -0.532643,-0.140266 -0.723331,-0.275031 -0.0806757,-0.0568397 -0.149433,-0.12193 -0.203523,-0.196189 -0.789338,-0.0669242 -1.40082,1.01303 -2.31026,2.35793l6.06443 0.534476 -0.0568397 1.20739 -6.47331 -0.571147 -0.416213 1.62635c0.310785,0.267697 0.62157,0.557396 0.932354,0.86818l0.164102 0 0.0375875 0 0 0.000916769c5.78848,0.0962608 0.656407,11.4376 1.75195,19.1339 0.317202,2.22867 -0.506057,4.1548 -1.75195,5.60054l0 0.0440049c-1.35957,1.49708 -2.73014,2.50186 -4.10988,3.0015l0 -4.37482c-0.0449217,0.0742583 -0.0935105,0.149433 -0.139349,0.220941l0 4.20247c-0.65274,0.220025 -1.30731,0.328203 -1.96464,0.321786 -0.620653,0.00550062 -1.23947,-0.0898434 -1.85646,-0.286032l0 -4.24189c-0.0458385,-0.071508 -0.0916769,-0.145766 -0.136599,-0.220941l0 4.41699c-1.41733,-0.484971 -2.82457,-1.50258 -4.22081,-3.04001l0 -0.0440049c-1.24589,-1.44575 -2.06915,-3.37188 -1.75195,-5.60054 1.09646,-7.69628 -4.03653,-19.0376 1.75195,-19.1339l0 -0.000916769 0.0385043 0z"/>
    <path id="_602774552" class="fil2" d="M53.7364 31.161c1.06804,1.48242 1.99031,2.89516 2.69622,4.14013 0.685743,1.20922 1.1698,2.26167 1.38891,3.06843l-0.3007 0.0815925c-0.213607,-0.782921 -0.68666,-1.81154 -1.35957,-2.99692 -0.700412,-1.2358 -1.61626,-2.63938 -2.67788,-4.11171l0.253028 -0.18152z"/>
    <g>
     <rect id="_602774000" class="fil0" x="57.6886" y="49.2685" width="0.447495" height="2.95979"/>
     <rect id="_602774336" class="fil0" x="57.4995" y="42.893" width="0.636602" height="6.68518"/>
     <rect id="_602774240" class="fil0" x="62.2343" y="49.2685" width="0.447495" height="2.95979"/>
     <rect id="_602774168" class="fil0" x="62.2343" y="43.1483" width="0.636602" height="6.37828"/>
    </g>
    <rect id="_602773736" class="fil0" x="58.2729" y="43.8306" width="3.8206" height="11.9081" rx="1.71528" ry="1.71528"/>
    <path id="_602774192" class="fil2" d="M66.4924 31.161c-1.06804,1.48242 -1.99031,2.89516 -2.69622,4.14013 -0.685743,1.20922 -1.1698,2.26167 -1.38891,3.06843l0.3007 0.0815925c0.21269,-0.782921 0.68666,-1.81154 1.35865,-2.99692 0.701328,-1.2358 1.61718,-2.63938 2.6788,-4.11171l-0.253028 -0.18152z"/>
    <path id="_602768184" class="fil0" d="M57.2504 40.1591l5.91133 0 0 3.57907c-1.94172,4.7617 -3.91185,4.69202 -5.91133,0l0 -3.57907z"/>
    <path id="_602768088" class="fil1" d="M60.218 30.5513c2.16174,0.53356 3.40488,1.47141 2.9575,3.09685 -1.84454,0.864513 -3.81009,1.04603 -5.91499,0 -0.316285,-1.39899 0.406129,-2.51836 2.9575,-3.09685z"/>
   </g>
   <g>
    <path id="_577370312" class="fil0" d="M34.2157 101.473l4.7837 0c3.03909,0 5.6308,-2.48628 5.6308,-5.52537l0 -8.68639 -3.55065 0 0 8.49203c0,1.19363 -0.976359,2.16908 -2.16908,2.16908l-4.69478 0 0 3.55065z"/>
    <path id="_577368896" class="fil0" d="M53.1094 87.2608c3.92469,0 7.10679,3.18119 7.10679,7.10588 0,3.92469 -3.18211,7.10588 -7.10679,7.10588 -3.92469,0 -7.10588,-3.18119 -7.10588,-7.10588 0,-3.92469 3.18119,-7.10588 7.10588,-7.10588zm0 3.34254c2.07832,0 3.76334,1.68502 3.76334,3.76334 0,2.07832 -1.68502,3.76334 -3.76334,3.76334 -2.07832,0 -3.76334,-1.68502 -3.76334,-3.76334 0,-2.07832 1.68502,-3.76334 3.76334,-3.76334z"/>
    <path id="_577368992" class="fil0" d="M69.3802 87.259l-3.01434 5.66472 -2.42944 -5.66472 -3.83485 0 4.14013 9.66275c-1.06529,1.06529 -1.55484,1.00111 -4.16305,1.00111l0 3.48006c4.4445,0 5.80407,-0.609652 7.73295,-3.80276l5.59779 -10.3412 -4.0292 0z"/>
    <path id="_577369040" class="fil0" d="M86.4385 101.403l0 -7.99606c0,-3.38104 -2.76681,-6.14785 -6.14785,-6.14785l-1.10562 0c-3.38104,0 -6.14785,2.76681 -6.14785,6.14785l0 7.99606 3.45439 0 0 -7.8833c0,-1.63827 1.34032,-2.97858 2.97858,-2.97858l0.535393 0c1.63827,0 2.97858,1.34032 2.97858,2.97858l0 7.8833 3.45439 0z"/>
   </g>
   <path id="_577367144" class="fil3" d="M20.8097 61.7279l7.37449 0c1.66119,0 2.92633,0.110012 3.80184,0.333704 1.17255,0.3007 2.17733,0.83701 3.00975,1.60893 0.837927,0.768253 1.47508,1.71069 1.91238,2.82457 0.432715,1.11754 0.651823,2.49086 0.651823,4.12821 0,1.43474 -0.20444,2.67422 -0.614235,3.71383 -0.497806,1.26881 -1.21014,2.29651 -2.14066,3.08034 -0.697661,0.597734 -1.64193,1.0607 -2.83373,1.39349 -0.888349,0.248444 -2.07923,0.370375 -3.57265,0.370375l-7.58902 0 0 -17.4535zm4.03378 2.95475l0 11.5559 3.01067 0c1.12579,0 1.93988,-0.0522558 2.44227,-0.165935 0.651823,-0.142099 1.19638,-0.382293 1.6291,-0.723331 0.432715,-0.341038 0.781087,-0.905768 1.05612,-1.68594 0.26953,-0.781087 0.408879,-1.85004 0.408879,-3.19861 0,-1.34948 -0.139349,-2.38085 -0.408879,-3.10418 -0.275031,-0.724248 -0.656407,-1.28806 -1.14504,-1.69052 -0.493222,-0.406129 -1.11662,-0.678409 -1.87021,-0.821425 -0.562896,-0.113679 -1.66577,-0.165935 -3.3132,-0.165935l-1.8097 0zm19.7793 14.4987l-3.82934 0 0 -12.6413 3.55431 0 0 1.79595c0.609652,-0.849845 1.1588,-1.40999 1.64285,-1.6786 0.488638,-0.267697 1.03778,-0.406129 1.6566,-0.406129 0.874598,0 1.71252,0.210857 2.52203,0.633488l-1.18722 2.91349c-0.641738,-0.361207 -1.24222,-0.544561 -1.79595,-0.544561 -0.53906,0 -0.991027,0.126514 -1.36324,0.38596 -0.376792,0.256695 -0.665574,0.724248 -0.879182,1.39807 -0.213607,0.674742 -0.320869,2.08932 -0.320869,4.23914l0 3.90452zm7.19755 -14.3566l0 -3.09685 3.82934 0 0 3.09685 -3.82934 0zm0 14.3566l0 -12.6413 3.82934 0 0 12.6413 -3.82934 0zm11.7356 0l-5.83524 -12.6413 4.02003 0 2.72739 6.45222 0.790255 2.15349c0.20994,-0.548228 0.344705,-0.910352 0.396044,-1.08454 0.130181,-0.35754 0.264946,-0.71508 0.408879,-1.06895l2.75489 -6.45222 3.94119 0 -5.75548 12.6413 -3.44797 0zm19.9278 -4.0237l3.82018 0.557396c-0.493222,1.22297 -1.26514,2.15441 -2.32676,2.79156 -1.05612,0.641738 -2.38177,0.958941 -3.97328,0.958941 -2.51745,0 -4.37849,-0.71508 -5.58771,-2.15349 -0.954357,-1.14963 -1.43383,-2.60454 -1.43383,-4.35557 0,-2.09757 0.627987,-3.7395 1.88488,-4.9258 1.25139,-1.1863 2.83832,-1.77945 4.75528,-1.77945 2.15441,0 3.85226,0.62157 5.09907,1.86471 1.24222,1.24406 1.83812,3.14544 1.78678,5.70964l-9.59857 0c0.0275031,0.991027 0.334621,1.76295 0.925937,2.31209 0.590399,0.552812 1.33023,0.828759 2.21033,0.828759 0.599567,0 1.10287,-0.142099 1.51175,-0.426298 0.409796,-0.288782 0.721497,-0.748084 0.925937,-1.38249zm0.219108 -3.38013c-0.0284198,-0.970859 -0.311702,-1.70702 -0.856262,-2.21033 -0.544561,-0.504223 -1.21014,-0.756335 -1.99122,-0.756335 -0.837927,0 -1.52642,0.268613 -2.07098,0.801256 -0.544561,0.527142 -0.814091,1.25139 -0.804923,2.16541l5.72339 0zm10.5942 7.40383l-3.82934 0 0 -12.6413 3.55431 0 0 1.79595c0.609652,-0.849845 1.1588,-1.40999 1.64285,-1.6786 0.488638,-0.267697 1.03778,-0.406129 1.6566,-0.406129 0.874598,0 1.71252,0.210857 2.52203,0.633488l-1.18722 2.91349c-0.641738,-0.361207 -1.24222,-0.544561 -1.79595,-0.544561 -0.53906,0 -0.991027,0.126514 -1.36324,0.38596 -0.376792,0.256695 -0.665574,0.724248 -0.879182,1.39807 -0.213607,0.674742 -0.320869,2.08932 -0.320869,4.23914l0 3.90452z"/>
  </g>
 </g>
</svg>
