<?xml version="1.0" encoding="UTF-8"?>
<!DOCTYPE svg PUBLIC "-//W3C//DTD SVG 1.1//EN" "http://www.w3.org/Graphics/SVG/1.1/DTD/svg11.dtd">
<!-- Creator: CorelDRAW -->
<svg xmlns="http://www.w3.org/2000/svg" xml:space="preserve" width="162px" height="275px" style="shape-rendering:geometricPrecision; text-rendering:geometricPrecision; image-rendering:optimizeQuality; fill-rule:evenodd; clip-rule:evenodd"
viewBox="0 0 24.6246 41.8584"
 xmlns:xlink="http://www.w3.org/1999/xlink">
 <defs>
  <style type="text/css">
   <![CDATA[
    .fil1 {fill:red}
    .fil0 {fill:white}
    .fil5 {fill:url(#id0)}
    .fil2 {fill:url(#id1)}
    .fil4 {fill:url(#id2)}
    .fil3 {fill:url(#id3)}
   ]]>
  </style>
  <linearGradient id="id0" gradientUnits="userSpaceOnUse" x1="6.65428" y1="9.42989" x2="6.65428" y2="10.8285">
   <stop offset="0" style="stop-color:red"/>
   <stop offset="1" style="stop-color:#B50000"/>
  </linearGradient>
  <linearGradient id="id1" gradientUnits="userSpaceOnUse" xlink:href="#id0" x1="3.27094" y1="12.7832" x2="4.66952" y2="12.7832">
  </linearGradient>
  <linearGradient id="id2" gradientUnits="userSpaceOnUse" xlink:href="#id0" x1="6.65428" y1="16.1321" x2="6.65428" y2="14.7335">
  </linearGradient>
  <linearGradient id="id3" gradientUnits="userSpaceOnUse" xlink:href="#id0" x1="19.9542" y1="12.7811" x2="21.3528" y2="12.7811">
  </linearGradient>
 </defs>
 <g id="Layer_x0020_1">
  <metadata id="CorelCorpID_0Corel-Layer"/>
  <g id="_350441536">
   <path id="_350443048" class="fil0" d="M12.3123 37.4975c2.89015,0 5.23308,0.97631 5.23308,2.18045 0,1.20414 -2.34293,2.18045 -5.23308,2.18045 -2.88997,0 -5.2329,-0.97631 -5.2329,-2.18045 0,-1.20414 2.34293,-2.18045 5.2329,-2.18045z"/>
   <path id="_350443024" class="fil1" d="M12.3121 0c0.484385,0 0.961947,0.0305209 1.43161,0.0883311l0.129445 0.0157991 0.0272893 0.00377023c5.50579,0.735554 9.85969,5.16881 10.5493,10.7554 0.114184,0.715087 0.174867,1.4501 0.174867,2.19966 0,0.56751 -0.0342911,1.12676 -0.100539,1.6756l0.00035907 0 -0.000538604 0.00107721c-0.894981,6.32465 -7.98589,6.9383 -11.7755,22.765 -0.330524,1.03448 -0.660149,0.995341 -0.990314,-0.0229805 -1.97129,-12.8116 -10.5137,-15.0495 -11.6525,-22.7034l-0.000897674 -0.00377023 0.000538604 0c-0.0689414,-0.559969 -0.105207,-1.13125 -0.105207,-1.71151 0,-0.230164 0.00574511,-0.458891 0.0168763,-0.685823 0.0222623,-6.8392 5.504,-12.3771 12.2638,-12.3771l0.0161581 0.00035907 0.0152605 -0.00035907z"/>
   <g>
    <polygon id="_350442736" class="fil2" points="4.66952,10.6391 4.66952,14.7333 3.27094,16.1366 3.27094,9.42989 "/>
    <rect id="_350442592" class="fil0" x="4.66959" y="10.639" width="15.2854" height="4.09439"/>
    <polygon id="_350442976" class="fil3" points="19.9542,10.6396 19.9542,14.7339 21.3528,16.1317 21.3528,9.43042 "/>
    <polygon id="_350442568" class="fil4" points="4.66898,14.7335 19.9542,14.7339 21.3528,16.1317 3.28028,16.1321 "/>
    <polygon id="_350442760" class="fil5" points="4.66898,10.8285 19.9542,10.8281 21.3528,9.43025 3.28028,9.42989 "/>
   </g>
  </g>
 </g>
</svg>
