<?xml version="1.0" encoding="UTF-8"?>
<!DOCTYPE svg PUBLIC "-//W3C//DTD SVG 1.1//EN" "http://www.w3.org/Graphics/SVG/1.1/DTD/svg11.dtd">
<!-- Creator: CorelDRAW -->
<svg xmlns="http://www.w3.org/2000/svg" xml:space="preserve" width="213px" height="237px" style="shape-rendering:geometricPrecision; text-rendering:geometricPrecision; image-rendering:optimizeQuality; fill-rule:evenodd; clip-rule:evenodd"
viewBox="0 0 24.3168 27.1343"
 xmlns:xlink="http://www.w3.org/1999/xlink">
 <defs>
  <style type="text/css">
   <![CDATA[
    .fil0 {fill:none}
    .fil1 {fill:white}
    .fil2 {fill:white;fill-rule:nonzero}
   ]]>
  </style>
 </defs>
 <g id="Layer_x0020_1">
  <metadata id="CorelCorpID_0Corel-Layer"/>
  <g id="_339710952">
   <rect id="_339705456" class="fil0" x="1.24927e-005" width="24.3167" height="27.1343"/>
   <g>
    <g>
     <rect id="_339706776" class="fil1" x="9.04516" y="4.31299" width="6.96107" height="0.809434" rx="0.404738" ry="0.404738"/>
     <rect id="_339706416" class="fil1" x="9.04516" y="7.02044" width="6.96107" height="0.809434" rx="0.404738" ry="0.404738"/>
     <rect id="_339706272" class="fil1" x="9.04516" y="9.72788" width="6.96107" height="0.809434" rx="0.404738" ry="0.404738"/>
     <rect id="_339706488" class="fil1" x="9.04516" y="12.4353" width="6.96107" height="0.809434" rx="0.404738" ry="0.404738"/>
    </g>
    <path id="_339706008" class="fil1" d="M5.87558 0.98442c3.05985,0 6.22628,-0.0239114 9.28694,-0.0387716l0 0c0.0267483,-0.000945648 0.053902,-0.0017562 0.0821363,-0.00229657 0.0503895,-0.00108074 0.0522808,-0.0017562 0.0628181,-0.0017562 0.453101,0 0.909714,0.0721395 1.34106,0.21142 0.423245,0.136714 0.822039,0.339082 1.16882,0.602243 0.373261,0.283154 0.68573,0.635341 0.904985,1.05102 0.204125,0.386635 0.327465,0.828118 0.343946,1.31958l0 0.000945648 0.0018913 0.0628181 0 0.000945648c0.000945648,0.0424191 0.00148602,0.0330977 0.00148602,0.046742 0,3.94025 0,7.88049 0,11.8207l0 0.221012 0 0.229387 -0.229387 0 -0.221147 0 -0.353808 0 -0.229387 0 0 -0.000675463 -0.490927 0.00229657 0 -11.0179 0 -1.29392c0,-0.232359 -0.0559283,-0.439051 -0.152384,-0.620886 -0.10956,-0.206422 -0.271941,-0.383258 -0.464989,-0.530509 -0.241546,-0.183996 -0.528347,-0.323412 -0.824065,-0.419328 -0.328545,-0.106453 -0.667493,-0.158734 -0.967533,-0.158734l-0.229522 0 0 -0.000810556 -9.03094 0.0359346c-0.91228,-0.144009 -0.760166,-1.35214 0,-1.51952z"/>
    <path id="_339705672" class="fil1" d="M5.98163 13.2144c0,-4.01387 0,-6.91377 0,-10.9278l0 -0.183456c0.0526861,-0.982258 1.47264,-0.928897 1.52479,-0.00162111 0,4.10384 -0.000135093,7.04805 -0.000135093,11.1519 0,0.232359 0.0559283,0.439186 0.152384,0.620886 0.109695,0.206422 0.272077,0.383258 0.465124,0.530509 0.241411,0.184131 0.528347,0.323412 0.82393,0.419328 0.328545,0.106453 0.667493,0.158869 0.967533,0.158869l0.229522 0 0 0.000675463 6.28005 -0.0343135c0.894448,0.25573 0.88283,1.36498 0,1.52128l-6.53605 0.0355294 0 0c-0.0267483,0.000810556 -0.0537669,0.00162111 -0.0821363,0.00229657 -0.0503895,0.00108074 -0.0522808,0.00162111 -0.062683,0.00162111 -0.453101,0 -0.909849,-0.0720044 -1.34106,-0.21142 -0.42338,-0.136579 -0.822039,-0.338947 -1.16896,-0.602108 -0.373261,-0.283289 -0.68573,-0.635476 -0.904985,-1.05102 -0.20399,-0.38677 -0.327329,-0.828253 -0.343946,-1.31972l0 -0.000810556 -0.0018913 -0.0629532 0 -0.000945648c-0.000945648,-0.0424191 -0.00148602,-0.0329626 -0.00148602,-0.046742z"/>
   </g>
   <path id="_339705936" class="fil2" d="M2.15419 22.3898c0,-0.556582 0.0826767,-1.02306 0.249111,-1.40051 0.124555,-0.277075 0.293556,-0.527402 0.508354,-0.748548 0.214797,-0.219796 0.449858,-0.383798 0.705319,-0.490521 0.340569,-0.144819 0.732067,-0.216013 1.17679,-0.216013 0.804477,0 1.44752,0.249111 1.93047,0.748548 0.482956,0.498087 0.724367,1.19206 0.724367,2.08029 0,0.88202 -0.240195,1.57086 -0.719233,2.06908 -0.479174,0.496871 -1.11965,0.745981 -1.92034,0.745981 -0.812042,0 -1.45765,-0.247895 -1.93682,-0.742199 -0.479038,-0.495655 -0.718017,-1.17814 -0.718017,-2.04611zm1.13491 -0.0368803c0,0.617643 0.143603,1.08669 0.428244,1.40564 0.285991,0.318954 0.648174,0.477823 1.0879,0.477823 0.438511,0 0.799343,-0.157653 1.08155,-0.475256 0.280858,-0.316522 0.421894,-0.790562 0.421894,-1.42347 0,-0.625209 -0.137254,-1.09168 -0.410546,-1.40051 -0.274508,-0.307471 -0.639258,-0.461206 -1.0929,-0.461206 -0.454992,0 -0.820958,0.156302 -1.09925,0.467691 -0.277075,0.311253 -0.416896,0.780295 -0.416896,1.40929zm6.01378 2.73238l-1.04602 0 0 -3.95362 0.971046 0 0 0.561715c0.166434,-0.265592 0.316387,-0.441077 0.448508,-0.524835 0.133472,-0.0838925 0.283424,-0.127122 0.452425,-0.127122 0.238979,0 0.467691,0.0660603 0.688837,0.198181l-0.324087 0.9112c-0.17535,-0.113073 -0.339353,-0.170217 -0.490521,-0.170217 -0.147386,0 -0.270726,0.039447 -0.372315,0.120773 -0.102941,0.0799748 -0.181835,0.226145 -0.240195,0.43716 -0.0584951,0.21088 -0.0876751,0.653173 -0.0876751,1.32553l0 1.22124zm5.59175 0l-0.971046 0 0 -0.580763c-0.161301,0.226145 -0.351916,0.39393 -0.571847,0.504571 -0.219796,0.110506 -0.440942,0.165218 -0.664656,0.165218 -0.454992,0 -0.843789,-0.183051 -1.16788,-0.549016 -0.322871,-0.366101 -0.485523,-0.877021 -0.485523,-1.53141 0,-0.671005 0.157653,-1.18071 0.472824,-1.52884 0.315171,-0.348269 0.714235,-0.523619 1.19584,-0.523619 0.440942,0 0.823525,0.184266 1.14626,0.551583l0 -1.966 1.04602 0 0 5.45828zm-2.79209 -2.06259c0,0.421894 0.0584951,0.726933 0.17535,0.916333 0.167785,0.271941 0.404197,0.409196 0.706534,0.409196 0.241546,0 0.446076,-0.102941 0.615212,-0.307606 0.16765,-0.20453 0.252893,-0.51092 0.252893,-0.917549 0,-0.453641 -0.0826767,-0.781511 -0.245328,-0.981043 -0.163867,-0.199532 -0.373666,-0.300041 -0.630342,-0.300041 -0.24776,0 -0.454992,0.099158 -0.622777,0.296123 -0.16765,0.1971 -0.251542,0.491872 -0.251542,0.884587zm6.11281 0.804477l1.04346 0.174134c-0.134822,0.382447 -0.345702,0.673437 -0.635476,0.872969 -0.288558,0.200883 -0.650741,0.300041 -1.08533,0.300041 -0.687486,0 -1.19584,-0.223713 -1.52628,-0.673572 -0.260594,-0.359752 -0.391498,-0.814609 -0.391498,-1.36241 0,-0.65574 0.171568,-1.16923 0.514703,-1.54033 0.341919,-0.371099 0.775297,-0.556582 1.29892,-0.556582 0.588328,0 1.05224,0.194398 1.3928,0.58333 0.339353,0.388797 0.502004,0.983609 0.48809,1.78552l-2.62188 0c0.00770028,0.310173 0.0915928,0.551583 0.252893,0.723151 0.161436,0.172783 0.363534,0.259243 0.603729,0.259243 0.163867,0 0.301121,-0.0444455 0.412978,-0.133472 0.111857,-0.0902419 0.196965,-0.233845 0.252893,-0.432026zm0.0597109 -1.05737c-0.00756519,-0.303823 -0.0851084,-0.533751 -0.233845,-0.691404 -0.148602,-0.157518 -0.330437,-0.236412 -0.543883,-0.236412 -0.228712,0 -0.416896,0.0838925 -0.565498,0.250462 -0.148737,0.165218 -0.222498,0.391363 -0.219931,0.677354l1.56316 0zm2.89382 2.31549l-1.04602 0 0 -3.95362 0.971046 0 0 0.561715c0.166434,-0.265592 0.316387,-0.441077 0.448508,-0.524835 0.133472,-0.0838925 0.283424,-0.127122 0.452425,-0.127122 0.238979,0 0.467691,0.0660603 0.688837,0.198181l-0.324087 0.9112c-0.17535,-0.113073 -0.339353,-0.170217 -0.490521,-0.170217 -0.147386,0 -0.270726,0.039447 -0.372315,0.120773 -0.102941,0.0799748 -0.181835,0.226145 -0.240195,0.43716 -0.0584951,0.21088 -0.0876751,0.653173 -0.0876751,1.32553l0 1.22124z"/>
  </g>
 </g>
</svg>
