<?xml version="1.0" encoding="UTF-8"?>
<!DOCTYPE svg PUBLIC "-//W3C//DTD SVG 1.1//EN" "http://www.w3.org/Graphics/SVG/1.1/DTD/svg11.dtd">
<!-- Creator: CorelDRAW -->
<svg xmlns="http://www.w3.org/2000/svg" xml:space="preserve" width="213px" height="237px" style="shape-rendering:geometricPrecision; text-rendering:geometricPrecision; image-rendering:optimizeQuality; fill-rule:evenodd; clip-rule:evenodd"
viewBox="0 0 175.093 195.379"
 xmlns:xlink="http://www.w3.org/1999/xlink">
 <defs>
  <style type="text/css">
   <![CDATA[
    .fil0 {fill:none}
    .fil1 {fill:white}
    .fil2 {fill:white;fill-rule:nonzero}
   ]]>
  </style>
 </defs>
 <g id="Layer_x0020_1">
  <metadata id="CorelCorpID_0Corel-Layer"/>
  <g id="_339700800">
   <rect id="_339708744" class="fil0" x="8.99531e-005" width="175.091" height="195.379"/>
   <g>
    <path id="_339709392" class="fil1" d="M98.1783 57.6477l0.576827 -0.0515545c2.88705,-0.253882 5.457,1.89974 5.71185,4.78582l0.643945 7.29934 29.1468 13.8263c0.506791,0.239291 0.983427,0.483445 1.43672,0.731491l0.248045 0.126455c0.217891,0.110891 0.425082,0.2354 0.6206,0.372554 7.04449,4.24887 6.95111,9.48603 6.94624,13.3555l0 15.5179c0,2.89581 -2.37345,5.26926 -5.27024,5.26926l-0.578773 0c-2.89581,0 -5.26926,-2.37151 -5.26926,-5.26926l0 -9.83524 0 -2.11082c-0.0680909,-4.51151 -0.747054,-6.83535 -5.01344,-9.18449l-1.38711 -0.705227 -0.00972727 -0.00486364 0.000972727 0 -28.4999 -13.4985c-0.459127,-0.216918 -0.859891,-0.520409 -1.21299,-0.854054 -1.08362,-0.868645 -1.82678,-2.15945 -1.9581,-3.64384l-0.918254 -10.416c-0.254855,-2.88608 1.89876,-5.457 4.78582,-5.71088z"/>
    <path id="_339709464" class="fil1" d="M66.9227 71.2386l-26.0876 12.269c-0.506791,0.239291 -0.983427,0.483445 -1.43672,0.731491l-0.248045 0.126455c-0.215945,0.109918 -0.425082,0.2354 -0.6206,0.372554 -7.04449,4.24887 -6.95111,9.48603 -6.94624,13.3555l0 15.5179c0,2.89581 2.37151,5.26926 5.27024,5.26926l0.578773 0c2.89775,0 5.26926,-2.37151 5.26926,-5.26926l0 -9.83524 0 -2.11082c0.0680909,-4.51151 0.747054,-6.83535 5.01344,-9.18449l1.38711 -0.705227 0.00972727 -0.00486364 -0.000972727 0 26.2374 -12.3468c5.35097,-3.45707 2.68764,-13.7621 -8.42576,-8.1855z"/>
    <path id="_339709656" class="fil1" d="M86.9686 7.92578c15.7728,0 28.5583,13.7232 28.5583,30.6526 0,16.9293 -12.7855,30.6535 -28.5583,30.6535 -15.7718,0 -28.5583,-13.7242 -28.5583,-30.6535 0,-16.9293 12.7865,-30.6526 28.5583,-30.6526zm0 11.5249c9.84205,0 17.8204,8.56389 17.8204,19.1277 0,10.5638 -7.97831,19.1277 -17.8204,19.1277 -9.84205,0 -17.8204,-8.56389 -17.8204,-19.1277 0,-10.5638 7.97831,-19.1277 17.8204,-19.1277z"/>
   </g>
   <path id="_339708720" class="fil2" d="M31.5416 180.626l-6.90928 0 -2.74406 -8.93158 -12.5637 0 -2.59037 8.93158 -6.73224 0 12.2418 -39.3021 6.71084 0 12.5871 39.3021zm-11.6873 -15.5471l-4.33155 -14.586 -4.24401 14.586 8.57556 0zm34.8616 -4.50178l-5.94239 1.33555c-0.196491,-1.48244 -0.649782,-2.59913 -1.36085,-3.3491 -0.709118,-0.749973 -1.62348,-1.12545 -2.75087,-1.12545 -1.50773,0 -2.69932,0.649782 -3.59228,1.93962 -0.892963,1.29956 -1.34042,3.46874 -1.34042,6.50657 0,3.37634 0.454264,5.76438 1.36085,7.15538 0.907554,1.391 2.12249,2.0865 3.65162,2.0865 1.14879,0 2.07872,-0.402709 2.81021,-1.21688 0.732464,-0.814173 1.24412,-2.2149 1.54469,-4.19148l5.91904 1.25385c-0.613791,3.39482 -1.79955,5.96671 -3.5417,7.69622 -1.74118,1.73826 -4.07573,2.59913 -7.00947,2.59913 -3.32964,0 -5.98616,-1.30929 -7.96177,-3.93565 -1.98339,-2.62636 -2.97168,-6.26825 -2.97168,-10.9169 0,-4.69438 0.996073,-8.35378 2.97849,-10.9714 1.9902,-2.62636 4.6759,-3.93468 8.06391,-3.93468 2.77324,0 4.97647,0.749973 6.61552,2.24214 1.63126,1.49119 2.81021,3.76932 3.52711,6.8266zm24.4193 0l-5.94142 1.33555c-0.198436,-1.48244 -0.651727,-2.59913 -1.36182,-3.3491 -0.709118,-0.749973 -1.62445,-1.12545 -2.75087,-1.12545 -1.50773,0 -2.70029,0.649782 -3.59325,1.93962 -0.892963,1.29956 -1.34042,3.46874 -1.34042,6.50657 0,3.37634 0.454264,5.76438 1.36279,7.15538 0.907554,1.391 2.12055,2.0865 3.65064,2.0865 1.14879,0 2.07775,-0.402709 2.81118,-1.21688 0.731491,-0.814173 1.24315,-2.2149 1.54275,-4.19148l5.92002 1.25385c-0.614764,3.39482 -1.79955,5.96671 -3.54073,7.69622 -1.74215,1.73826 -4.07767,2.59913 -7.01142,2.59913 -3.32867,0 -5.98519,-1.30929 -7.9608,-3.93565 -1.98436,-2.62636 -2.97265,-6.26825 -2.97265,-10.9169 0,-4.69438 0.997045,-8.35378 2.97946,-10.9714 1.99117,-2.62636 4.6759,-3.93468 8.06391,-3.93468 2.77324,0 4.97647,0.749973 6.61552,2.24214 1.63224,1.49119 2.81021,3.76932 3.52711,6.8266zm3.16817 5.40739c0,-2.49796 0.497064,-4.92297 1.47855,-7.2653 0.988291,-2.33357 2.3861,-4.12728 4.19245,-5.35292 1.80733,-1.23536 3.82671,-1.85791 6.06009,-1.85791 3.43859,0 6.26339,1.39975 8.46564,4.20024 2.20323,2.79951 3.30046,6.33245 3.30046,10.6056 0,4.30043 -1.11183,7.86936 -3.32964,10.7068 -2.22365,2.83647 -5.02024,4.24595 -8.39366,4.24595 -2.09136,0 -4.07573,-0.586554 -5.9706,-1.76647 -1.89585,-1.18089 -3.33645,-2.9104 -4.32474,-5.18853 -0.981482,-2.27813 -1.47855,-5.05137 -1.47855,-8.32752zm6.17682 0.402709c0,2.82772 0.533054,4.98717 1.60986,6.48809 1.06805,1.50092 2.39194,2.25089 3.96581,2.25089 1.5729,0 2.88997,-0.749973 3.95219,-2.25089 1.06805,-1.50092 1.60208,-3.67885 1.60208,-6.54256 0,-2.782 -0.534027,-4.9327 -1.60208,-6.43362 -1.06222,-1.49995 -2.37929,-2.25089 -3.95219,-2.25089 -1.57387,0 -2.89775,0.750945 -3.96581,2.25089 -1.07681,1.50092 -1.60986,3.6701 -1.60986,6.48809zm37.0278 14.2388l0 -4.26444c-0.8346,1.5194 -1.92503,2.7178 -3.27128,3.59617 -1.35501,0.869618 -2.78103,1.30929 -4.28194,1.30929 -1.52815,0 -2.89678,-0.421191 -4.11269,-1.25385 -1.21299,-0.842382 -2.09136,-2.0223 -2.64095,-3.5417 -0.541809,-1.5194 -0.8132,-3.62341 -0.8132,-6.30522l0 -18.0081 6.02313 0 0 13.0764c0,4.00764 0.109918,6.45988 0.336564,7.36646 0.219836,0.896854 0.622545,1.60986 1.20715,2.14097 0.586554,0.531109 1.33264,0.786936 2.23338,0.786936 1.03109,0 1.95226,-0.347264 2.76546,-1.05249 0.812227,-0.713982 1.36863,-1.58263 1.66823,-2.62636 0.2996,-1.05152 0.454264,-3.61465 0.454264,-7.68649l0 -12.0054 6.02215 0 0 28.4678 -5.59026 0zm32.5406 0l-6.02215 0 0 -14.5316c0,-3.07479 -0.131318,-5.06013 -0.387145,-5.96574 -0.2568,-0.896854 -0.680909,-1.60208 -1.25968,-2.10498 -0.5778,-0.494145 -1.27233,-0.750945 -2.08455,-0.750945 -1.04665,0 -1.98339,0.356991 -2.81021,1.07097 -0.826818,0.722736 -1.39781,1.66531 -1.70519,2.8462 -0.307382,1.17992 -0.461073,3.35785 -0.461073,6.54256l0 12.8935 -6.02215 0 0 -28.4678 5.59026 0 0 4.18175c1.99117,-3.2207 4.49303,-4.83154 7.50848,-4.83154 1.32485,0 2.5466,0.301545 3.64384,0.896854 1.09821,0.604064 1.93184,1.36279 2.49602,2.29661 0.563209,0.933818 0.958136,1.98534 1.17797,3.16623 0.226645,1.18089 0.335591,2.86371 0.335591,5.06013l0 17.6978zm16.5451 -28.4678l0 6.0027 -4.11269 0 0 11.4753c0,2.32385 0.0379364,3.67885 0.118673,4.06308 0.0797636,0.384227 0.255827,0.6955 0.534027,0.951327 0.277227,0.247073 0.621573,0.375473 1.0165,0.375473 0.564182,0 1.3696,-0.247073 2.42987,-0.722736l0.512627 5.83734c-1.40559,0.750945 -2.9853,1.12642 -4.76442,1.12642 -1.08265,0 -2.06315,-0.229564 -2.93374,-0.677991 -0.871563,-0.457182 -1.50773,-1.05152 -1.91822,-1.77523 -0.408545,-0.722736 -0.687718,-1.7013 -0.847245,-2.93666 -0.125482,-0.869618 -0.190655,-2.64485 -0.190655,-5.30817l0 -12.4081 -2.76644 0 0 -6.0027 2.76644 0 0 -5.66419 6.04258 -4.39284 0 10.057 4.11269 0z"/>
  </g>
 </g>
</svg>
