<?xml version="1.0" encoding="UTF-8"?>
<!DOCTYPE svg PUBLIC "-//W3C//DTD SVG 1.1//EN" "http://www.w3.org/Graphics/SVG/1.1/DTD/svg11.dtd">
<!-- Creator: CorelDRAW -->
<svg xmlns="http://www.w3.org/2000/svg" xml:space="preserve" width="213px" height="237px" style="shape-rendering:geometricPrecision; text-rendering:geometricPrecision; image-rendering:optimizeQuality; fill-rule:evenodd; clip-rule:evenodd"
viewBox="0 0 34.0291 37.9719"
 xmlns:xlink="http://www.w3.org/1999/xlink">
 <defs>
  <style type="text/css">
   <![CDATA[
    .fil0 {fill:none}
    .fil1 {fill:white}
    .fil2 {fill:white;fill-rule:nonzero}
   ]]>
  </style>
 </defs>
 <g id="Layer_x0020_1">
  <metadata id="CorelCorpID_0Corel-Layer"/>
  <g id="_339711480">
   <rect id="_339706368" class="fil0" x="1.74824e-005" width="34.029" height="37.9719"/>
   <g>
    <g>
     <circle id="_339707736" class="fil1" cx="11.7671" cy="14.3022" r="1.20298"/>
     <circle id="_339708384" class="fil1" cx="15.5982" cy="14.3022" r="1.20298"/>
     <circle id="_339706920" class="fil1" cx="19.2367" cy="14.3022" r="1.20298"/>
     <circle id="_339707448" class="fil1" cx="23.0678" cy="14.3022" r="1.20298"/>
    </g>
    <path id="_339707352" class="fil1" d="M28.2742 23.0423c0,-4.27195 0.0334617,-8.54446 0.0540681,-12.8174l0 0c0.00132335,-0.0374318 0.00245764,-0.0752416 0.00321384,-0.114753 0.00151239,-0.0703264 0.00245764,-0.072784 0.00245764,-0.0875298 0,-0.632559 -0.100574,-1.27022 -0.295106,-1.87216 -0.190751,-0.590968 -0.47338,-1.14772 -0.840702,-1.63206 -0.395491,-0.52102 -0.887209,-0.957157 -1.4674,-1.26342 -0.539925,-0.284708 -1.15623,-0.456932 -1.84229,-0.480185l-0.00132335 0 -0.0877189 -0.00245764 -0.00132335 0c-0.0591724,-0.00132335 -0.046128,-0.00226859 -0.065222,-0.00226859 -5.68925,0 -11.3783,0.000189049 -17.0676,0.000189049 -1.29877,0.21476 -1.28289,1.79691 -0.0168254,2.12851l15.3325 0 1.80637 0c1.6228,0 2.38637,1.54208 2.41454,3.36319l0 0.32025 0.0011343 0 -0.0500981 12.4103 2.12132 0.04972z"/>
    <path id="_339707568" class="fil1" d="M11.2 22.8937l0.253137 0c1.98521,0.102276 2.22341,0.709502 3.68627,3.09927l1.03902 -3.09927 -0.994021 0 9.2241 0c1.52185,-0.316847 1.58631,-1.87745 0.00226859,-2.1287l-8.36506 0c-0.728407,0.015502 -1.16681,0.397382 -1.34225,1.68651 -0.51497,-1.1307 -1.0566,-1.6211 -3.25033,-1.68632l-0.307583 0c-0.324409,0 -0.613087,-0.0780774 -0.866602,-0.21287 -0.2883,-0.152941 -0.535199,-0.379611 -0.740695,-0.649195 -0.257107,-0.336886 -0.451639,-0.737481 -0.585486,-1.15037 -0.148593,-0.458634 -0.221755,-0.931824 -0.221755,-1.35076l0 -0.32025 -0.000945247 0 0.0478295 -10.9673c-0.156911,-1.25831 -1.93851,-1.20065 -2.12359,0l-0.04972 11.3246 0 0c-0.0011343,0.0374318 -0.00245764,0.0752416 -0.00321384,0.114564 -0.00151239,0.0705154 -0.00226859,0.072973 -0.00226859,0.0877189 0,0.632559 0.100574,1.27022 0.295106,1.87216 0.190751,0.590968 0.47319,1.14772 0.840702,1.63187 0.395302,0.52102 0.887019,0.957346 1.46721,1.26361 0.539925,0.284708 1.15623,0.456932 1.84247,0.479996l0.0011343 0 0.0877189 0.00264669 0.00132335 0c0.0593615,0.00132335 0.0463171,0.00207954 0.065222,0.00207954z"/>
   </g>
   <path id="_339706800" class="fil2" d="M10.8877 32.2964l1.49406 0.473001c-0.229506,0.834086 -0.610062,1.45303 -1.14356,1.85854 -0.531796,0.40362 -1.20935,0.60647 -2.02926,0.60647 -1.01368,0 -1.84777,-0.346906 -2.50056,-1.03864 -0.652598,-0.693622 -0.979843,-1.64152 -0.979843,-2.84198 0,-1.27155 0.328946,-2.25857 0.985136,-2.96297 0.656379,-0.702507 1.51882,-1.05452 2.58941,-1.05452 0.933715,0 1.69313,0.275634 2.27653,0.828792 0.348607,0.325354 0.608172,0.794952 0.782475,1.40672l-1.52771 0.364487c-0.0888532,-0.396626 -0.277335,-0.709502 -0.565447,-0.939008 -0.28641,-0.229317 -0.635017,-0.343125 -1.04393,-0.343125 -0.565636,0 -1.02635,0.202661 -1.37836,0.609873 -0.352199,0.405511 -0.528204,1.06359 -0.528204,1.97405 0,0.965853 0.172413,1.65399 0.52102,2.0631 0.346906,0.410804 0.798544,0.615356 1.3534,0.615356 0.410804,0 0.763003,-0.129877 1.0583,-0.391332 0.295106,-0.259565 0.506841,-0.670369 0.636529,-1.22882zm4.26665 -4.83021l0 2.80814c0.473001,-0.551457 1.03675,-0.828792 1.69294,-0.828792 0.33802,0 0.64031,0.0640877 0.912352,0.188482 0.270341,0.124584 0.474892,0.284519 0.611764,0.478484 0.137061,0.195477 0.231207,0.410804 0.281116,0.647305 0.0516105,0.234799 0.0763759,0.602878 0.0763759,1.09913l0 3.2456 -1.46362 0 0 -2.92384c0,-0.579625 -0.0283574,-0.947893 -0.0835598,-1.10443 -0.0569039,-0.156344 -0.154831,-0.279226 -0.295295,-0.371671 -0.140464,-0.0924451 -0.316469,-0.138762 -0.528204,-0.138762 -0.243496,0 -0.460524,0.0587943 -0.650897,0.177895 -0.192074,0.1174 -0.332538,0.295295 -0.41969,0.533497 -0.0888532,0.238391 -0.13328,0.59059 -0.13328,1.05471l0 2.7726 -1.46381 0 0 -7.63835 1.46381 0zm6.15337 3.79327l-1.32845 -0.240093c0.149349,-0.535199 0.405511,-0.930123 0.769998,-1.18799 0.366378,-0.255973 0.907059,-0.38585 1.62545,-0.38585 0.654489,0 1.14016,0.0782664 1.46022,0.232909 0.318359,0.154831 0.544273,0.350308 0.673961,0.5887 0.129877,0.238391 0.195666,0.673961 0.195666,1.31068l-0.0160692 1.7092c0,0.485479 0.0232531,0.844672 0.0712716,1.07588 0.046128,0.229506 0.13517,0.478484 0.263157,0.741641l-1.44944 0c-0.0374318,-0.0977385 -0.0854503,-0.241794 -0.140464,-0.432167 -0.023064,-0.0871517 -0.0410237,-0.144056 -0.0516105,-0.172413 -0.250679,0.243496 -0.517617,0.424983 -0.802136,0.547676 -0.284519,0.120992 -0.5887,0.181487 -0.912352,0.181487 -0.569039,0 -1.01898,-0.154831 -1.34622,-0.462415 -0.328946,-0.309474 -0.492663,-0.700806 -0.492663,-1.17381 0,-0.311364 0.0746745,-0.590401 0.224023,-0.835976 0.149538,-0.245386 0.359383,-0.432167 0.627833,-0.561855 0.268639,-0.129877 0.658081,-0.243685 1.16492,-0.341612 0.683035,-0.127986 1.15774,-0.248978 1.42108,-0.359194l0 -0.145757c0,-0.282818 -0.0693811,-0.482076 -0.208143,-0.602878 -0.138762,-0.11929 -0.400217,-0.179786 -0.786067,-0.179786 -0.261455,0 -0.464116,0.0516105 -0.610062,0.154831 -0.145757,0.10133 -0.263157,0.280927 -0.3539,0.538791zm1.95817 1.18799c-0.186781,0.0623863 -0.483777,0.137061 -0.891179,0.224213 -0.405322,0.0871517 -0.670369,0.172413 -0.796654,0.254271 -0.190373,0.136872 -0.28641,0.307583 -0.28641,0.515727 0,0.206253 0.076565,0.382447 0.229506,0.531796 0.152941,0.149349 0.346716,0.224023 0.583406,0.224023 0.264858,0 0.515727,-0.0871517 0.755819,-0.259565 0.177706,-0.131578 0.293405,-0.293405 0.348607,-0.485479 0.0389442,-0.124584 0.0569039,-0.362975 0.0569039,-0.713283l0 -0.291703zm5.41872 -2.87563l0 1.16662 -0.999504 0 0 2.23022c0,0.451639 0.00907437,0.714985 0.0285465,0.789659 0.0194721,0.0746745 0.0621972,0.13517 0.129877,0.18489 0.0674906,0.0480185 0.15105,0.072973 0.247087,0.072973 0.137061,0 0.332727,-0.0480185 0.59059,-0.140464l0.124394 1.13449c-0.341423,0.145946 -0.725571,0.218919 -1.15774,0.218919 -0.263157,0 -0.501548,-0.0446156 -0.713094,-0.131767 -0.211735,-0.0888532 -0.366378,-0.204362 -0.466007,-0.345015 -0.099629,-0.140464 -0.16712,-0.330647 -0.206253,-0.57074 -0.0302479,-0.16901 -0.0463171,-0.514025 -0.0463171,-1.03164l0 -2.41151 -0.672259 0 0 -1.16662 0.672259 0 0 -1.10083 1.46891 -0.853747 0 1.95458 0.999504 0z"/>
  </g>
 </g>
</svg>
