<?xml version="1.0" encoding="UTF-8"?>
<!DOCTYPE svg PUBLIC "-//W3C//DTD SVG 1.1//EN" "http://www.w3.org/Graphics/SVG/1.1/DTD/svg11.dtd">
<!-- Creator: CorelDRAW -->
<svg xmlns="http://www.w3.org/2000/svg" xml:space="preserve" width="213px" height="237px" style="shape-rendering:geometricPrecision; text-rendering:geometricPrecision; image-rendering:optimizeQuality; fill-rule:evenodd; clip-rule:evenodd"
viewBox="0 0 19.377 21.6226"
 xmlns:xlink="http://www.w3.org/1999/xlink">
 <defs>
  <style type="text/css">
   <![CDATA[
    .fil0 {fill:none}
    .fil1 {fill:white}
    .fil2 {fill:white;fill-rule:nonzero}
   ]]>
  </style>
 </defs>
 <g id="Layer_x0020_1">
  <metadata id="CorelCorpID_0Corel-Layer"/>
  <g id="_339701088">
   <rect id="_339705048" class="fil0" x="-4.52761e-005" y="-5.32847e-005" width="19.3771" height="21.6227"/>
   <g>
    <path id="_339705312" class="fil1" d="M10.54 1.14325l5.655 5.21395c0.0991463,0.0916107 0.161045,0.190542 0.193018,0.290872 0.037893,0.118739 0.0326182,0.235217 -0.00312187,0.342114 -0.0145328,0.0432756 -0.033587,0.0833216 -0.0563013,0.119708l-0.000753555 0c-0.0243291,0.0388619 -0.0521029,0.0738484 -0.0824604,0.104314 -0.0283121,0.0284198 -0.0591002,0.053933 -0.0915031,0.076109 -0.0319723,0.0218531 -0.0669587,0.0413379 -0.103991,0.0578084 -0.10905,0.0487658 -0.23414,0.069327 -0.356431,0.0524259l0 -0.000107651c-0.114863,-0.0159323 -0.22682,-0.0639445 -0.320799,-0.150711l-5.68611 -5.24259 -5.7183 5.29092c-0.0600691,0.0554401 -0.12875,0.0965627 -0.201199,0.123045 -0.0748172,0.0273433 -0.154371,0.0395078 -0.233817,0.0363859 -0.0789079,-0.00312187 -0.157278,-0.0216378 -0.230157,-0.0551171 -0.0711571,-0.0327258 -0.136824,-0.0793385 -0.192264,-0.1393l0.000430603 -0.000322952 -0.015394 -0.0166859 -0.01787 -0.0193771 -0.011411 -0.0228219 -0.0118416 -0.0234678 -0.020023 -0.0400461 0 -0.00215301c-0.0210995,-0.0472586 -0.0386466,-0.0958091 -0.0508111,-0.144575l0 -0.000753555c-0.0152864,-0.0611456 -0.0230372,-0.124875 -0.0204536,-0.189788 0.00290657,-0.0744943 0.0188389,-0.147481 0.0505958,-0.217131 0.0300345,-0.0655593 0.0733101,-0.126274 0.131764,-0.180315l5.68579 -5.26089c0.278815,-0.2575 0.562152,-0.387542 0.853132,-0.388296 0.290334,-0.000861205 0.574639,0.127566 0.855285,0.386789z"/>
    <path id="_339705120" class="fil1" d="M4.47407 10.5302l0 -4.73243c0,-0.0814916 0.0165782,-0.159969 0.0465051,-0.232095 0.0310034,-0.0748172 0.076109,-0.141776 0.131657,-0.197216l0.000645904 0c0.0558707,-0.0558707 0.122614,-0.100976 0.19657,-0.131657 0.0722336,-0.0299269 0.150603,-0.0465051 0.232095,-0.0465051 0.0814916,0 0.159969,0.0165782 0.232095,0.0465051 0.0747096,0.0310034 0.141668,0.076109 0.197216,0.131657 0.0555477,0.0554401 0.100653,0.122506 0.131657,0.197216 0.0299269,0.072126 0.0465051,0.150603 0.0465051,0.232095l0 4.76354c0,0.185159 0.0445674,0.349865 0.12143,0.494763 0.0873047,0.16449 0.216808,0.305405 0.370641,0.422744 0.192372,0.14662 0.420914,0.257716 0.656561,0.334148 0.261806,0.0848287 0.531902,0.12649 0.770994,0.12649l0.182899 0 0 0.000645904 5.89689 -0.0286351 0 -4.29591c0,-0.0814916 0.01787,-0.159754 0.0501652,-0.231664 0.0329411,-0.0737407 0.080738,-0.139192 0.1393,-0.193018 0.0553324,-0.0507035 0.121322,-0.091826 0.194094,-0.120031 0.0705112,-0.027128 0.146297,-0.0423067 0.224021,-0.0423067 0.0777238,0 0.15351,0.0151787 0.224021,0.0423067 0.0728795,0.0282045 0.138762,0.0692194 0.194094,0.120031 0.0586696,0.0538253 0.106359,0.119277 0.1393,0.193018 0.0321876,0.0719107 0.0500576,0.150173 0.0500576,0.231664l0 5.14786 0 0.176117 0 0.182791 -0.182791 0 -0.176117 0 -0.281937 0 -0.182899 0 0 -0.000538253 -6.4922 0.031434 0 0c-0.0213148,0.000753555 -0.0429526,0.00139946 -0.0654516,0.00183006 -0.0401537,0.000861205 -0.0416608,0.00139946 -0.0499499,0.00139946 -0.361168,0 -0.725027,-0.0574855 -1.06865,-0.168473 -0.337377,-0.108942 -0.655162,-0.270203 -0.931501,-0.479907 -0.297439,-0.225636 -0.546435,-0.506281 -0.721152,-0.837522 -0.162553,-0.308096 -0.260838,-0.659899 -0.274079,-1.05153l0 -0.000753555 -0.00150711 -0.0500576 0 -0.000753555c-0.000753555,-0.0338023 -0.00118416,-0.0263744 -0.00118416,-0.0372471z"/>
   </g>
   <path id="_339704760" class="fil2" d="M1.65373 19.9897l0 -4.34952 0.878968 0 0 1.71143 1.72058 0 0 -1.71143 0.878107 0 0 4.34952 -0.878107 0 0 -1.90186 -1.72058 0 0 1.90186 -0.878968 0zm4.18653 -1.62036c0,-0.276447 0.0687888,-0.54482 0.204536,-0.804043 0.136716,-0.258254 0.330165,-0.456762 0.580237,-0.592402 0.25018,-0.136716 0.529641,-0.205613 0.838599,-0.205613 0.475924,0 0.866803,0.154909 1.17167,0.464836 0.304867,0.309819 0.456762,0.700806 0.456762,1.17372 0,0.475924 -0.15394,0.870894 -0.460853,1.18491 -0.307773,0.313909 -0.69467,0.469895 -1.16155,0.469895 -0.28958,0 -0.56409,-0.0649134 -0.826327,-0.195494 -0.262345,-0.130688 -0.461821,-0.322091 -0.598538,-0.574209 -0.135748,-0.252118 -0.204536,-0.55903 -0.204536,-0.921597zm0.854746 0.0445674c0,0.312941 0.0738484,0.551925 0.222729,0.71803 0.147912,0.166105 0.331133,0.249104 0.548911,0.249104 0.217777,0 0.40003,-0.0829987 0.546865,-0.249104 0.147804,-0.166105 0.22176,-0.407135 0.22176,-0.724058 0,-0.307881 -0.073956,-0.545897 -0.22176,-0.712002 -0.146836,-0.165997 -0.329088,-0.249104 -0.546865,-0.249104 -0.217777,0 -0.400999,0.0831063 -0.548911,0.249104 -0.148881,0.166105 -0.222729,0.406166 -0.222729,0.71803zm2.98741 -1.57471l0.768626 0 0 0.429311c0.274509,-0.334148 0.602628,-0.501222 0.98242,-0.501222 0.201522,0 0.37667,0.0415532 0.524582,0.124552 0.148773,0.0829987 0.270311,0.208627 0.365582,0.37667 0.137685,-0.168043 0.287535,-0.293671 0.447612,-0.37667 0.159969,-0.0829987 0.331133,-0.124552 0.513386,-0.124552 0.230911,0 0.427373,0.0475816 0.587342,0.141776 0.160077,0.0931178 0.279569,0.23188 0.358584,0.413163 0.0577008,0.134671 0.0860129,0.352448 0.0860129,0.653224l0 2.01425 -0.833432 0 0 -1.80057c0,-0.312941 -0.0283121,-0.514463 -0.0861205,-0.605643 -0.0769702,-0.118416 -0.195386,-0.17827 -0.355463,-0.17827 -0.117447,0 -0.22682,0.0355247 -0.330057,0.107435 -0.102376,0.0708341 -0.176224,0.175148 -0.221868,0.312941 -0.0455362,0.137685 -0.0687888,0.354386 -0.0687888,0.651071l0 1.51303 -0.833432 0 0 -1.72672c0,-0.306804 -0.0152864,-0.504236 -0.0445674,-0.593371 -0.0293886,-0.0891348 -0.0760014,-0.155017 -0.137793,-0.198508 -0.0627603,-0.0435985 -0.146836,-0.0658822 -0.254163,-0.0658822 -0.128643,0 -0.244044,0.0344482 -0.346312,0.104314 -0.103345,0.0688964 -0.177301,0.169119 -0.221868,0.299807 -0.0444597,0.130688 -0.0667434,0.346312 -0.0667434,0.649134l0 1.53122 -0.833539 0 0 -3.1505zm7.28946 2.14795l0.831494 0.138762c-0.107435,0.304759 -0.275478,0.536639 -0.506389,0.695639 -0.229942,0.160077 -0.518553,0.239092 -0.864866,0.239092 -0.547834,0 -0.952924,-0.17827 -1.21624,-0.536746 -0.207658,-0.286674 -0.311972,-0.649134 -0.311972,-1.08566 0,-0.522536 0.136716,-0.931717 0.410149,-1.22743 0.272464,-0.295716 0.617807,-0.443521 1.03506,-0.443521 0.468819,0 0.838491,0.154909 1.10988,0.464836 0.270419,0.309819 0.40003,0.783805 0.388942,1.42282l-2.08928 0c0.00613609,0.247166 0.0729872,0.439538 0.201522,0.576254 0.128643,0.137685 0.289688,0.206582 0.481091,0.206582 0.13058,0 0.239953,-0.0354171 0.329088,-0.106359 0.0891348,-0.0719107 0.156955,-0.186343 0.201522,-0.344267zm0.0475816 -0.842582c-0.00602844,-0.242106 -0.0678199,-0.425328 -0.186343,-0.550956 -0.118416,-0.125521 -0.263314,-0.188389 -0.433402,-0.188389 -0.182253,0 -0.33221,0.0668511 -0.450626,0.199584 -0.118523,0.131657 -0.177301,0.311864 -0.175255,0.53976l1.24563 0z"/>
  </g>
 </g>
</svg>
