<?xml version="1.0" encoding="UTF-8"?>
<!DOCTYPE svg PUBLIC "-//W3C//DTD SVG 1.1//EN" "http://www.w3.org/Graphics/SVG/1.1/DTD/svg11.dtd">
<!-- Creator: CorelDRAW -->
<svg xmlns="http://www.w3.org/2000/svg" xml:space="preserve" width="213px" height="237px" style="shape-rendering:geometricPrecision; text-rendering:geometricPrecision; image-rendering:optimizeQuality; fill-rule:evenodd; clip-rule:evenodd"
viewBox="0 0 131.892 147.175"
 xmlns:xlink="http://www.w3.org/1999/xlink">
 <defs>
  <style type="text/css">
   <![CDATA[
    .fil0 {fill:none}
    .fil1 {fill:white}
    .fil2 {fill:white;fill-rule:nonzero}
   ]]>
  </style>
 </defs>
 <g id="Layer_x0020_1">
  <metadata id="CorelCorpID_0Corel-Layer"/>
  <g id="_339711456">
   <rect id="_339703416" class="fil0" x="1.38917e-005" width="131.893" height="147.175"/>
   <g>
    <rect id="_339704664" class="fil1" x="49.0607" y="22.237" width="37.7564" height="4.39035" rx="2.19527" ry="2.19527"/>
    <rect id="_339704904" class="fil1" x="49.0607" y="36.9221" width="18.8785" height="4.39035" rx="2.19527" ry="2.19527"/>
    <rect id="_339704352" class="fil1" x="49.0607" y="51.6073" width="18.8785" height="4.39035" rx="2.19527" ry="2.19527"/>
    <rect id="_339703824" class="fil1" x="49.0607" y="66.2924" width="18.8785" height="4.39035" rx="2.19527" ry="2.19527"/>
    <path id="_339704472" class="fil1" d="M31.8688 4.18245c16.5972,0 33.771,-0.129694 50.3718,-0.209562l0 -0.000732734c0.145814,-0.00439641 0.292361,-0.00879281 0.446235,-0.0124565 0.272577,-0.00586187 0.282835,-0.00879281 0.339989,-0.00879281 2.45759,0 4.93497,0.390547 7.27385,1.14673 2.29566,0.740794 4.45869,1.83843 6.34035,3.2658 2.02381,1.53654 3.71936,3.44678 4.90859,5.70067 1.10643,2.09782 1.77542,4.49239 1.86554,7.15808l0 0.00512914 0.00952555 0.340721 0 0.00512914c0.00512914,0.230079 0.00879281,0.17952 0.00879281,0.253526 0,21.3717 -0.000732734,42.7433 -0.000732734,64.115l0 1.19875 0 1.24492 -1.24418 0 -1.19875 0 -1.91903 0 -1.24492 0 0 -0.00439641 -2.66276 0.0131892 0 -59.7611 0 -7.01813c0,-1.2603 -0.303352,-2.38212 -0.826524,-3.36765 -0.594248,-1.11962 -1.47499,-2.07877 -2.52207,-2.87745 -1.3094,-0.997984 -2.86572,-1.75417 -4.46968,-2.27441 -1.78201,-0.577395 -3.61971,-0.861696 -5.24784,-0.861696l-1.24418 0 0 -0.00366367 -48.984 0.194175c-4.94742,-0.780362 -4.1231,-7.3332 0,-8.2418z"/>
    <path id="_339704040" class="fil1" d="M32.444 70.5183c0,-21.7717 0.000732734,-37.5006 0.000732734,-59.2723l0 -0.995786c0.285034,-5.32698 7.98754,-5.03755 8.27037,-0.00879281 0,22.2597 -0.000732734,38.2289 -0.000732734,60.4887 0,1.25957 0.303352,2.38139 0.826524,3.36691 0.594248,1.11962 1.47499,2.0795 2.52207,2.87745 1.3094,0.998717 2.86572,1.7549 4.46968,2.27441 1.78201,0.578127 3.62044,0.861696 5.24784,0.861696l1.24418 0 0 0.00439641 34.0626 -0.186847c4.85143,1.3878 4.78842,7.40428 0,8.25132l-35.4504 0.192709 0 0c-0.145814,0.00512914 -0.292361,0.00952555 -0.446235,0.0124565 -0.272577,0.00586187 -0.282835,0.00952555 -0.339989,0.00952555 -2.45759,0 -4.93497,-0.39128 -7.27385,-1.14673 -2.29566,-0.741527 -4.45869,-1.83916 -6.34035,-3.26653 -2.02381,-1.53581 -3.71936,-3.44605 -4.90859,-5.70067 -1.10643,-2.09782 -1.77542,-4.49166 -1.86554,-7.15808l0 -0.00439641 -0.00952555 -0.341454 0 -0.00439641c-0.00512914,-0.230811 -0.00879281,-0.17952 -0.00879281,-0.253526z"/>
    <path id="_339703944" class="fil1" d="M78.9191 67.8512l0 -24.754 -5.41271 3.28265 8.63454 -13.4911 7.48708 13.4237 -5.04561 -3.37791 0 24.9166c0,1.55706 -1.27422,2.83129 -2.83129,2.83129l-0.000732734 0c-1.55706,0 -2.83129,-1.27422 -2.83129,-2.83129z"/>
   </g>
   <path id="_339703488" class="fil2" d="M4.49093 126.432l5.23246 -0.572265c0.310679,1.95787 0.948891,3.39183 1.9161,4.30848 0.960615,0.909323 2.25609,1.37168 3.89375,1.37168 1.72925,0 3.03718,-0.406668 3.91207,-1.22733 0.880014,-0.813335 1.32039,-1.76442 1.32039,-2.85327 0,-0.703425 -0.186115,-1.29621 -0.558344,-1.78567 -0.365634,-0.496061 -1.00971,-0.923245 -1.93369,-1.28229 -0.626488,-0.247664 -2.06485,-0.675581 -4.30335,-1.29547 -2.88258,-0.792819 -4.90419,-1.77175 -6.06338,-2.92947 -1.63693,-1.62667 -2.45466,-3.61238 -2.45466,-5.95566 0,-1.50943 0.383953,-2.91628 1.15259,-4.23227 0.769371,-1.31013 1.87873,-2.30958 3.32368,-2.99908 1.45081,-0.682176 3.19252,-1.02656 5.23905,-1.02656 3.34786,0 5.85821,0.813335 7.55083,2.44001 1.68675,1.634 2.57336,3.80509 2.65983,6.52793l-5.37461 0.261586c-0.230079,-1.52335 -0.72614,-2.61953 -1.48232,-3.28118 -0.756915,-0.668254 -1.89119,-0.99945 -3.40355,-0.99945 -1.56292,0 -2.79025,0.351712 -3.671,1.06833 -0.570067,0.455028 -0.855101,1.06906 -0.855101,1.83403 0,0.702692 0.266715,1.3028 0.800146,1.79886 0.675581,0.634548 2.32497,1.29621 4.94083,1.97838 2.61586,0.689503 4.55028,1.39952 5.80326,2.13006 1.25224,0.737131 2.23191,1.73658 2.94486,3.01227 0.707089,1.27496 1.06027,2.84667 1.06027,4.71441 0,1.69628 -0.422055,3.28851 -1.27129,4.76351 -0.849239,1.48159 -2.04579,2.58509 -3.59553,3.3017 -1.55047,0.723941 -3.48488,1.08225 -5.79739,1.08225 -3.36618,0 -5.952,-0.861696 -7.75526,-2.59168 -1.80472,-1.72999 -2.88331,-4.25352 -3.23063,-7.56182zm38.8364 9.62959l0 -3.21231c-0.707821,1.14453 -1.63107,2.04726 -2.77193,2.70892 -1.14673,0.655064 -2.35574,0.98626 -3.62703,0.98626 -1.29547,0 -2.45466,-0.317274 -3.48415,-0.944495 -1.02876,-0.634548 -1.77322,-1.52335 -2.2385,-2.66789 -0.458692,-1.14453 -0.688038,-2.72944 -0.688038,-4.74958l0 -13.5651 5.10276 0 0 9.85015c0,3.01887 0.0930573,4.86609 0.285034,5.549 0.186115,0.675581 0.527569,1.21268 1.0229,1.61275 0.496061,0.400073 1.12914,0.592782 1.89119,0.592782 0.874152,0 1.65525,-0.261586 2.34402,-0.792819 0.688038,-0.537827 1.15919,-1.19216 1.41271,-1.97838 0.254259,-0.792086 0.384686,-2.72284 0.384686,-5.79007l0 -9.04341 5.10276 0 0 21.4442 -4.73639 0zm9.80765 0l0 -29.6054 5.10276 0 0 10.6635c1.57465,-1.9923 3.43433,-2.99175 5.59223,-2.99175 2.34988,0 4.29016,0.951089 5.83403,2.84008 1.53728,1.88826 2.30665,4.6045 2.30665,8.14727 0,3.66001 -0.787689,6.48616 -2.35647,8.46455 -1.56805,1.97838 -3.4717,2.96464 -5.70947,2.96464 -1.10423,0 -2.18868,-0.303352 -3.2614,-0.917383 -1.07272,-0.613299 -1.9967,-1.51603 -2.7712,-2.71551l0 3.15002 -4.73713 0zm5.06539 -11.1874c0,2.21945 0.316541,3.86004 0.942296,4.92837 0.886609,1.50943 2.05825,2.26122 3.52812,2.26122 1.12255,0 2.08316,-0.537827 2.87671,-1.60615 0.793551,-1.06833 1.18996,-2.75728 1.18996,-5.05953 0,-2.44733 -0.402271,-4.21835 -1.20242,-5.3006 -0.793551,-1.08225 -1.81645,-1.6274 -3.06942,-1.6274 -1.22074,0 -2.23777,0.531232 -3.04964,1.58564 -0.812602,1.06173 -1.21561,2.66056 -1.21561,4.81846zm17.4896 -10.2568l4.70562 0 0 2.92214c1.68089,-2.27441 3.68932,-3.41161 6.01428,-3.41161 1.23392,0 2.30665,0.282835 3.21157,0.847774 0.910789,0.564938 1.65525,1.42004 2.2385,2.56384 0.842644,-1.1438 1.76003,-1.9989 2.74043,-2.56384 0.978933,-0.564938 2.02674,-0.847774 3.1427,-0.847774 1.41344,0 2.61659,0.323869 3.59553,0.965011 0.980398,0.633815 1.71167,1.57831 2.19527,2.81223 0.353911,0.916651 0.526836,2.39897 0.526836,4.44623l0 13.7102 -5.10203 0 0 -12.2557c0,-2.13006 -0.173658,-3.50174 -0.527569,-4.12236 -0.471148,-0.806008 -1.19582,-1.21341 -2.17622,-1.21341 -0.718812,0 -1.38853,0.241802 -2.02015,0.731269 -0.627221,0.482139 -1.07932,1.19216 -1.35849,2.13006 -0.279172,0.937167 -0.421322,2.41216 -0.421322,4.43158l0 10.2986 -5.10203 0 0 -11.7531c0,-2.08829 -0.09379,-3.43213 -0.27331,-4.03883 -0.17952,-0.606704 -0.465286,-1.05514 -0.843377,-1.35116 -0.383953,-0.296757 -0.899065,-0.448433 -1.55633,-0.448433 -0.786957,0 -1.49405,0.234475 -2.1198,0.71002 -0.63235,0.46895 -1.08518,1.15113 -1.35849,2.04067 -0.271844,0.889539 -0.408133,2.35721 -0.408133,4.41839l0 10.4224 -5.10349 0 0 -21.4442zm33.461 -2.90896l0 -5.25224 5.10276 0 0 5.25224 -5.10276 0zm0 24.3532l0 -21.4442 5.10276 0 0 21.4442 -5.10276 0zm19.1757 -21.4442l0 4.5217 -3.48415 0 0 8.64407c0,1.7505 0.0315076,2.7712 0.0996519,3.06063 0.0681443,0.28943 0.216889,0.523905 0.45283,0.716614 0.235208,0.186115 0.526103,0.282835 0.860963,0.282835 0.477743,0 1.15992,-0.186115 2.05898,-0.544422l0.433779 4.39714c-1.18996,0.565671 -2.5294,0.848506 -4.0359,0.848506 -0.917383,0 -1.7483,-0.172925 -2.48617,-0.510716 -0.737863,-0.344385 -1.27716,-0.792086 -1.62447,-1.33724 -0.347316,-0.544422 -0.582524,-1.28155 -0.718812,-2.21212 -0.105514,-0.655064 -0.161934,-1.9923 -0.161934,-3.99853l0 -9.34676 -2.34328 0 0 -4.5217 2.34328 0 0 -4.26671 5.12108 -3.30903 0 7.57574 3.48415 0z"/>
  </g>
 </g>
</svg>
