<?xml version="1.0" encoding="UTF-8"?>
<!DOCTYPE svg PUBLIC "-//W3C//DTD SVG 1.1//EN" "http://www.w3.org/Graphics/SVG/1.1/DTD/svg11.dtd">
<!-- Creator: CorelDRAW -->
<svg xmlns="http://www.w3.org/2000/svg" xml:space="preserve" width="213px" height="237px" style="shape-rendering:geometricPrecision; text-rendering:geometricPrecision; image-rendering:optimizeQuality; fill-rule:evenodd; clip-rule:evenodd"
viewBox="0 0 48.1096 53.6842"
 xmlns:xlink="http://www.w3.org/1999/xlink">
 <defs>
  <style type="text/css">
   <![CDATA[
    .fil0 {fill:none}
    .fil1 {fill:white}
    .fil2 {fill:white;fill-rule:nonzero}
   ]]>
  </style>
 </defs>
 <g id="Layer_x0020_1">
  <metadata id="CorelCorpID_0Corel-Layer"/>
  <g id="_339711096">
   <rect id="_339702120" class="fil0" width="48.1097" height="53.6842"/>
   <g>
    <path id="_339703776" class="fil1" d="M11.6244 1.52668c6.05406,0 12.3185,-0.0473078 18.3739,-0.0764408l0 -0.000267276c0.0531879,-0.00160365 0.106643,-0.00320731 0.162771,-0.00454369 0.0994265,-0.00213821 0.103168,-0.00320731 0.124016,-0.00320731 0.896443,0 1.8001,0.142458 2.65325,0.418286 0.837375,0.270216 1.62637,0.670595 2.31274,1.19125 0.738215,0.560477 1.35669,1.25726 1.79048,2.0794 0.403586,0.764943 0.647609,1.6384 0.680484,2.61075l0 0.00187093 0.00347458 0.124283 0 0.00187093c0.00187093,0.0839246 0.00320731,0.0654825 0.00320731,0.0924774 0,7.79536 -0.000267276,15.5907 -0.000267276,23.3861l0 0.437263 0 0.453834 -0.453834 0 -0.437263 0 -0.699995 0 -0.454101 0 0 -0.00133638 -0.97128 0.00454369 0 -21.7979 0 -2.5597c0,-0.459714 -0.110652,-0.868646 -0.301487,-1.22813 -0.216761,-0.408665 -0.538026,-0.758528 -0.919963,-1.04959 -0.477622,-0.364297 -1.04532,-0.640125 -1.63038,-0.829624 -0.650014,-0.210613 -1.32061,-0.314316 -1.91423,-0.314316l-0.453834 0 0 -0.00133638 -17.8676 0.0708281c-1.80491,-0.284916 -1.50396,-2.67489 0,-3.00632z"/>
    <path id="_339703104" class="fil1" d="M11.8342 25.7226c0,-7.94103 0,-13.6784 0,-21.6194l0 -0.363228c0.104238,-1.94309 2.91384,-1.83752 3.01674,-0.00320731 0,8.1193 -0.000267276,13.9438 -0.000267276,22.0631 0,0.459714 0.110919,0.868646 0.301754,1.2284 0.216761,0.408397 0.538026,0.758261 0.919963,1.04959 0.477622,0.364029 1.04532,0.639858 1.63038,0.829356 0.649747,0.210881 1.32034,0.314316 1.91423,0.314316l0.453834 0 0 0.00160365 12.4248 -0.0681553c1.76963,0.505953 1.74665,2.70055 0,3.00979l-12.9311 0.0702935 0 0c-0.0531879,0.00160365 -0.106643,0.00320731 -0.162771,0.00454369 -0.0994265,0.00213821 -0.103168,0.00320731 -0.124016,0.00320731 -0.896443,0 -1.8001,-0.142458 -2.65325,-0.418019 -0.837375,-0.270483 -1.62637,-0.670862 -2.31274,-1.19151 -0.738483,-0.56021 -1.35669,-1.257 -1.79048,-2.0794 -0.403586,-0.764943 -0.647609,-1.6384 -0.680484,-2.61075l0 -0.00187093 -0.00347458 -0.124283 0 -0.00187093c-0.00213821,-0.0839246 -0.00320731,-0.0654825 -0.00320731,-0.0924774z"/>
    <path id="_339702480" class="fil2" d="M17.1412 12.6927c0,-1.48151 0.264336,-2.57787 0.796749,-3.29364 0.532413,-0.711755 1.25352,-1.0699 2.16386,-1.0699 0.941612,0 1.67876,0.35414 2.21064,1.0659 0.532413,0.708013 0.797016,1.80865 0.797016,3.29765 0,1.4775 -0.264603,2.57814 -0.797016,3.2899 -0.531879,0.715764 -1.25326,1.06964 -2.1636,1.06964 -0.941612,0 -1.67849,-0.353873 -2.2109,-1.06189 -0.532413,-0.712022 -0.796749,-1.8124 -0.796749,-3.29765zm2.01873 -0.023253c0,1.07365 0.10397,1.79716 0.305496,2.16253 0.154485,0.273156 0.365366,0.40813 0.636383,0.40813 0.276898,0 0.491253,-0.134974 0.645471,-0.40813 0.198319,-0.365366 0.296141,-1.08888 0.296141,-2.16253 0,-1.07712 -0.0978229,-1.79289 -0.296141,-2.15451 -0.154218,-0.277165 -0.368573,-0.415614 -0.645471,-0.415614 -0.271018,0 -0.481898,0.134707 -0.636383,0.403854 -0.201526,0.369375 -0.305496,1.08915 -0.305496,2.16627zm2.91651 13.0981l-1.91824 0 7.20629 -17.4384 1.86452 0 -7.15256 17.4384zm4.18901 -4.34029c0,-1.48151 0.267543,-2.57814 0.799689,-3.2899 0.532413,-0.715764 1.25994,-1.07338 2.18284,-1.07338 0.925843,0 1.65657,0.357615 2.18899,1.07338 0.532146,0.711755 0.799956,1.80839 0.799956,3.2899 0,1.48899 -0.26781,2.58963 -0.799956,3.3054 -0.532413,0.711755 -1.25379,1.06964 -2.16386,1.06964 -0.941612,0 -1.67555,-0.357882 -2.20796,-1.06964 -0.532146,-0.715764 -0.799689,-1.81641 -0.799689,-3.3054zm2.02194 -0.0114929c0,1.07365 0.100763,1.79315 0.302289,2.15478 0.154218,0.276898 0.368306,0.415346 0.639323,0.415346 0.277165,0 0.488045,-0.13444 0.636116,-0.403854 0.201793,-0.369375 0.302556,-1.09262 0.302556,-2.16627 0,-1.07365 -0.0978229,-1.79716 -0.292934,-2.16253 -0.154218,-0.273423 -0.368573,-0.407863 -0.645738,-0.407863 -0.277165,0 -0.491253,0.13444 -0.639323,0.407863 -0.201526,0.365366 -0.302289,1.08888 -0.302289,2.16253z"/>
   </g>
   <path id="_339702456" class="fil2" d="M3.21746 49.6304l0 -10.799 3.20517 0c1.21423,0 2.00697,0.0550588 2.37581,0.163305 0.566624,0.1609 1.04371,0.512902 1.42618,1.05601 0.382204,0.543104 0.573574,1.2447 0.573574,2.10212 0,0.663645 -0.110385,1.22198 -0.331956,1.67181 -0.221037,0.452765 -0.499806,0.807173 -0.840849,1.06616 -0.338638,0.256585 -0.684226,0.427374 -1.03436,0.510497 -0.477087,0.103168 -1.16853,0.155822 -2.07406,0.155822l-1.30163 0 0 4.07328 -1.99789 0zm1.99789 -8.97111l0 3.06244 1.09209 0c0.788196,0 1.3158,-0.0553261 1.58067,-0.168651 0.265137,-0.113058 0.472276,-0.288925 0.624356,-0.530275 0.149942,-0.241617 0.225848,-0.520653 0.225848,-0.840047 0,-0.392093 -0.106108,-0.716566 -0.317791,-0.972883 -0.209811,-0.253912 -0.479493,-0.414812 -0.802094,-0.477889 -0.239479,-0.0502478 -0.718704,-0.072699 -1.43768,-0.072699l-0.9654 0zm9.02536 8.97111l-1.89632 0 0 -7.82209 1.76054 0 0 1.11133c0.301754,-0.525464 0.573574,-0.872655 0.813053,-1.03837 0.242152,-0.165978 0.513971,-0.251506 0.820269,-0.251506 0.433254,0 0.848066,0.130698 1.24898,0.392093l-0.587472 1.80277c-0.318058,-0.22371 -0.615269,-0.336767 -0.889493,-0.336767 -0.267276,0 -0.490718,0.0780445 -0.675138,0.238944 -0.186558,0.158227 -0.329551,0.447419 -0.435392,0.864904 -0.106108,0.417217 -0.159029,1.29228 -0.159029,2.62251l0 2.41617zm3.12445 -4.02303c0,-0.686364 0.156624,-1.35268 0.465327,-1.99628 0.311109,-0.641194 0.751312,-1.13405 1.32034,-1.47082 0.56903,-0.33944 1.20488,-0.510497 1.90808,-0.510497 1.08273,0 1.97223,0.38461 2.66581,1.1541 0.69358,0.769219 1.03917,1.73996 1.03917,2.91411 0,1.18163 -0.350131,2.16226 -1.04852,2.9419 -0.700262,0.779376 -1.58067,1.16666 -2.64282,1.16666 -0.658835,0 -1.28346,-0.161167 -1.88002,-0.485373 -0.597094,-0.324473 -1.05093,-0.799689 -1.36204,-1.42565 -0.308703,-0.62596 -0.465327,-1.38796 -0.465327,-2.28815zm1.9447 0.110652c0,0.77697 0.168116,1.37032 0.506755,1.78273 0.336767,0.412406 0.75345,0.618476 1.24898,0.618476 0.495529,0 0.910341,-0.20607 1.24444,-0.618476 0.336233,-0.412406 0.504349,-1.01084 0.504349,-1.7977 0,-0.764408 -0.168116,-1.35535 -0.504349,-1.76776 -0.334095,-0.412139 -0.748906,-0.618476 -1.24444,-0.618476 -0.495529,0 -0.912212,0.206337 -1.24898,0.618476 -0.338638,0.412406 -0.506755,1.00843 -0.506755,1.78273zm6.79735 -3.90971l1.74878 0 0 1.0659c0.624623,-0.829624 1.37112,-1.24444 2.23523,-1.24444 0.458645,0 0.857153,0.103168 1.19365,0.309238 0.338371,0.20607 0.615001,0.51798 0.831762,0.935198 0.313247,-0.417217 0.654291,-0.729128 1.01832,-0.935198 0.364029,-0.20607 0.75345,-0.309238 1.16826,-0.309238 0.525197,0 0.972349,0.118136 1.33638,0.352002 0.364029,0.231193 0.636116,0.575712 0.815725,1.0258 0.131232,0.334362 0.195646,0.875061 0.195646,1.62183l0 5.001 -1.89605 0 0 -4.47045c0,-0.77697 -0.0644134,-1.27731 -0.19618,-1.50369 -0.175066,-0.294003 -0.444479,-0.442609 -0.808776,-0.442609 -0.267008,0 -0.515842,0.088201 -0.750777,0.266741 -0.233064,0.175867 -0.400914,0.434858 -0.504884,0.77697 -0.103703,0.341846 -0.156624,0.879872 -0.156624,1.61648l0 3.75656 -1.89605 0 0 -4.2871c0,-0.761736 -0.0350131,-1.25192 -0.101565,-1.47322 -0.0668189,-0.221304 -0.172927,-0.384877 -0.313514,-0.492856 -0.142725,-0.108247 -0.334095,-0.163573 -0.578385,-0.163573 -0.292667,0 -0.555132,0.0855282 -0.787929,0.25899 -0.234935,0.171056 -0.403319,0.41989 -0.504616,0.744363 -0.101297,0.324473 -0.151813,0.859826 -0.151813,1.61167l0 3.80173 -1.89659 0 0 -7.82209zm11.9956 3.79906c0,-0.686364 0.156624,-1.35268 0.465327,-1.99628 0.311109,-0.641194 0.751312,-1.13405 1.32034,-1.47082 0.56903,-0.33944 1.20488,-0.510497 1.90781,-0.510497 1.083,0 1.97223,0.38461 2.66607,1.1541 0.69358,0.769219 1.03917,1.73996 1.03917,2.91411 0,1.18163 -0.350131,2.16226 -1.04852,2.9419 -0.700262,0.779376 -1.58067,1.16666 -2.64282,1.16666 -0.658835,0 -1.28346,-0.161167 -1.88028,-0.485373 -0.596827,-0.324473 -1.05066,-0.799689 -1.36177,-1.42565 -0.308703,-0.62596 -0.465327,-1.38796 -0.465327,-2.28815zm1.9447 0.110652c0,0.77697 0.168116,1.37032 0.506755,1.78273 0.3365,0.412406 0.75345,0.618476 1.24898,0.618476 0.495529,0 0.910074,-0.20607 1.24417,-0.618476 0.3365,-0.412406 0.504616,-1.01084 0.504616,-1.7977 0,-0.764408 -0.168116,-1.35535 -0.504616,-1.76776 -0.334095,-0.412139 -0.748639,-0.618476 -1.24417,-0.618476 -0.495529,0 -0.912479,0.206337 -1.24898,0.618476 -0.338638,0.412406 -0.506755,1.00843 -0.506755,1.78273z"/>
  </g>
 </g>
</svg>
