<?xml version="1.0" encoding="UTF-8"?>
<!DOCTYPE svg PUBLIC "-//W3C//DTD SVG 1.1//EN" "http://www.w3.org/Graphics/SVG/1.1/DTD/svg11.dtd">
<!-- Creator: CorelDRAW -->
<svg xmlns="http://www.w3.org/2000/svg" xml:space="preserve" width="213px" height="237px" style="shape-rendering:geometricPrecision; text-rendering:geometricPrecision; image-rendering:optimizeQuality; fill-rule:evenodd; clip-rule:evenodd"
viewBox="0 0 56.9598 63.5595"
 xmlns:xlink="http://www.w3.org/1999/xlink">
 <defs>
  <style type="text/css">
   <![CDATA[
    .fil0 {fill:none}
    .fil1 {fill:white}
    .fil2 {fill:white;fill-rule:nonzero}
   ]]>
  </style>
 </defs>
 <g id="Layer_x0020_1">
  <metadata id="CorelCorpID_0Corel-Layer"/>
  <g id="_339702864">
   <rect id="_339708264" class="fil0" x="2.9263e-005" width="56.9596" height="63.5595"/>
   <g>
    <path id="_339708624" class="fil1" d="M47.3723 38.6423c0,-7.1674 0.0560102,-14.3361 0.0905023,-21.5054l0.000316442 0c0.00189865,-0.0626554 0.0037973,-0.125944 0.00537951,-0.192396 0.00253153,-0.118033 0.0037973,-0.122146 0.0037973,-0.146829 0,-1.06135 -0.168663,-2.13123 -0.495231,-3.14132 -0.319922,-0.991412 -0.793952,-1.92555 -1.41038,-2.73817 -0.663578,-0.874328 -1.48854,-1.60626 -2.46192,-2.11984 -0.905972,-0.477827 -1.9401,-0.766738 -3.09132,-0.80566l-0.00221509 0 -0.147145 -0.00411374 -0.00221509 0c-0.0993627,-0.00253153 -0.0775282,-0.0037973 -0.109489,-0.0037973 -9.54546,0 -19.0909,0 -28.6364,0 -2.17933,0.360743 -2.15275,3.01506 -0.0284797,3.57168l25.7254 -0.000316442 3.03088 0c2.72266,0 4.00394,2.58754 4.0514,5.64279l0 0.537634 0.00158221 0 -0.0841735 20.937 3.55965 -0.0313277z"/>
    <path id="_339708480" class="fil1" d="M18.7245 38.6423c9.40211,0 11.3672,0 20.7693,0l0.537634 0c2.87582,-0.286696 2.90145,-3.09322 0.0037973,-3.57168 -9.61318,0 -11.789,0.000316442 -21.4022,0.000316442 -0.54428,0 -1.02875,-0.131007 -1.45437,-0.356946 -0.483523,-0.256634 -0.897745,-0.636997 -1.24267,-1.08919 -0.430993,-0.565481 -0.757561,-1.2376 -0.982235,-1.93029 -0.249356,-0.769586 -0.371819,-1.56354 -0.371819,-2.26635l0 -0.537318 -0.00189865 0 0.0803762 -18.4014c-0.263279,-2.1113 -3.25239,-2.01447 -3.56313,0l-0.0832241 19.0007 -0.000316442 0c-0.00189865,0.0626554 -0.0037973,0.12626 -0.00537951,0.192396 -0.00221509,0.118033 -0.0037973,0.122463 -0.0037973,0.147145 0,1.06135 0.168663,2.13092 0.495231,3.14132 0.319922,0.991412 0.793952,1.92555 1.41038,2.73785 0.663578,0.874328 1.48854,1.60626 2.46223,2.11984 0.905656,0.478143 1.93979,0.767054 3.091,0.80566l0.00221509 0 0.147145 0.00443018 0.00221509 0c0.0993627,0.00221509 0.0775282,0.00348086 0.109489,0.00348086z"/>
    <path id="_339707784" class="fil1" d="M29.6246 23.0227l-11.5729 -9.83152c-0.99774,-0.847747 -2.30654,0.528774 -1.22748,1.44519l11.5729 9.83121c0.397451,0.337643 0.967362,0.260115 1.33602,-0.108539l0.000316442 -0.000316442c0.368654,-0.368654 0.288595,-0.99869 -0.108856,-1.33602z"/>
    <path id="_339708360" class="fil1" d="M28.5345 22.9151l13.72 -11.6514c0.99774,-0.847431 2.30623,0.528774 1.22748,1.44519l-13.72 11.6514c-0.397451,0.337327 -0.967362,0.259799 -1.33602,-0.108856l-0.000316442 -0.000316442c-0.368654,-0.368654 -0.288595,-0.998373 0.108856,-1.33602z"/>
   </g>
   <path id="_339708048" class="fil2" d="M5.9703 58.76l0 -12.7855 2.5809 0 0 12.7855 -2.5809 0zm13.4494 0l-2.44989 0 0 -4.72732c0,-1.00027 -0.0534786,-1.64613 -0.157904,-1.94074 -0.104109,-0.291759 -0.27657,-0.521179 -0.512002,-0.68478 -0.235116,-0.160752 -0.517698,-0.244293 -0.84838,-0.244293 -0.425614,0 -0.80661,0.116134 -1.14299,0.348402 -0.336377,0.235116 -0.568646,0.541748 -0.69364,0.925908 -0.124994,0.383844 -0.18765,1.09236 -0.18765,2.12839l0 4.19443 -2.44989 0 0 -9.26098 2.27427 0 0 1.36038c0.809774,-1.04774 1.82777,-1.57177 3.05429,-1.57177 0.5389,0 1.03603,0.0980969 1.48253,0.291759 0.446499,0.19651 0.786041,0.443335 1.01514,0.747119 0.229104,0.303784 0.389856,0.645857 0.479409,1.03002 0.0920845,0.38416 0.136703,0.931604 0.136703,1.64613l0 5.75734zm2.38154 0l0 -12.7855 2.45021 0 0 4.60517c0.755979,-0.860405 1.64898,-1.29203 2.68501,-1.29203 1.12811,0 2.06003,0.410741 2.80114,1.22653 0.738258,0.81547 1.10755,1.98852 1.10755,3.51851 0,1.58063 -0.378148,2.80114 -1.13128,3.65553 -0.753131,0.854392 -1.66701,1.28032 -2.74165,1.28032 -0.53004,0 -1.0509,-0.131007 -1.56575,-0.396185 -0.515167,-0.264862 -0.958818,-0.654718 -1.33064,-1.17273l0 1.36038 -2.27458 0zm2.43217 -4.83143c0,0.958502 0.151892,1.66701 0.452511,2.12839 0.425614,0.65187 0.988247,0.976539 1.69391,0.976539 0.5389,0 1.00027,-0.232268 1.38127,-0.69364 0.380996,-0.461372 0.571494,-1.19077 0.571494,-2.18503 0,-1.05691 -0.193346,-1.82175 -0.577506,-2.28914 -0.380996,-0.467384 -0.872113,-0.702817 -1.47367,-0.702817 -0.586366,0 -1.07464,0.22942 -1.46449,0.68478 -0.389856,0.458524 -0.583518,1.149 -0.583518,2.08092zm8.01388 0.0683514c0,-0.812622 0.202206,-1.60151 0.601239,-2.3635 0.401881,-0.759143 0.970526,-1.34266 1.70562,-1.74138 0.73541,-0.401881 1.55689,-0.604403 2.46508,-0.604403 1.39899,0 2.54799,0.455359 3.44415,1.36639 0.896163,0.910719 1.34266,2.06003 1.34266,3.45016 0,1.39899 -0.452511,2.56001 -1.35469,3.48307 -0.904707,0.922744 -2.042,1.38127 -3.4144,1.38127 -0.851228,0 -1.65815,-0.190814 -2.42901,-0.574658 -0.771168,-0.38416 -1.35753,-0.946793 -1.75942,-1.6879 -0.399033,-0.741106 -0.601239,-1.64328 -0.601239,-2.70906zm2.51255 0.131007c0,0.919896 0.217079,1.6224 0.654718,2.11067 0.434791,0.488269 0.973374,0.732246 1.61354,0.732246 0.640161,0 1.1759,-0.243976 1.60752,-0.732246 0.434474,-0.488269 0.65187,-1.19678 0.65187,-2.12839 0,-0.905023 -0.217395,-1.60468 -0.65187,-2.09294 -0.431626,-0.487953 -0.967362,-0.732246 -1.60752,-0.732246 -0.640161,0 -1.17874,0.244293 -1.61354,0.732246 -0.437639,0.488269 -0.654718,1.19393 -0.654718,2.11067zm7.78731 4.63207l3.34004 -4.77194 -3.20017 -4.48904 2.99196 0 1.64012 2.54514 1.72651 -2.54514 2.87867 0 -3.14037 4.38493 3.42611 4.87605 -3.00651 0 -1.88441 -2.86981 -1.90213 2.86981 -2.86981 0z"/>
  </g>
 </g>
</svg>
